<svg id="Layer_1" data-name="Layer 1" xmlns="http://www.w3.org/2000/svg" viewBox="0 0 1000.04 999.11"><defs><style>.cls-1{fill:#c4c4c4;}.cls-2{fill:#3f3f3f;}</style></defs><path class="cls-1" d="M1000,501.07c2.69,273.67-223.47,499.49-500.11,499.43C224.34,1000.44-1.93,775.12,0,496.18,1.82,226.8,225.18,1.17,501.13,1.39,776.18,1.62,1003,228.64,1000,501.07Zm-988.91-.83c1.62,271,216.54,488.55,488.51,489,272.74.41,484.92-216.6,489.32-479.12,4.65-277.63-217-497.2-488.47-497C228.05,13.3,13.78,230.16,11.06,500.24Z" transform="translate(0.04 -1.39)"/><path class="cls-2" d="M603.08,471.79c10.92,3,21.85,6,32.76,9,10.33,2.87,16.46,9.13,16.86,20.37.18,4.94,1.26,9.84,1.65,14.79,1.54,19.63,1.51,19.61,21.34,24.93,35.91,9.64,71.48,21,107.89,28.1,14.47,2.81,14.41,8.52,14.12,18.91-.42,14.53-.78,29.12.11,43.61.67,10.89-3.9,15.5-13.89,18.23q-126.3,34.53-252.43,69.64c-19.84,5.49-39.63,15.11-59.51,15.31-19,.19-38.1-9.54-57.22-14.68-28.1-7.55-56.26-14.87-84.37-22.39-4.16-1.12-7.95-2.38-12.06.52-1.73,1.22-5.35,3.17-6.59.37-2.8-6.31-8.74-5.38-13.46-6.66-41.34-11.25-82.72-22.38-124.21-33.09-7.07-1.82-9.62-4.55-9.54-12.12.47-44.68.29-89.36.48-134,.08-19.41,9.12-31.2,27.84-36.21C241.77,463.26,291.24,452,339.56,437c102.14-31.73,206.28-56,309.27-84.47a92.52,92.52,0,0,1,47.38-.76c34.36,8.55,68.54,17.8,102.66,27.26,7.57,2.1,15.64,4,20.85,11.32,4.59,6.47,3.68,11.75-1.58,17-5.76,5.7-13.06,8.26-20.67,10.28q-91.38,24.29-182.73,48.64c-4,1.05-7.86,2.32-11.78,3.5Zm-261.42,150c1.91-.86,4.84,1,6-2.29-2.73-1.81-5.21-.19-7.72.39-1.61.83-5.06.84-4.11,2.9C336.56,624.47,340.08,624.75,341.66,621.83Zm-58-53.52-.21-3.76c6.8,3.41,13.52,2.2,20.54.31q85.95-23.16,172-46c8.55-2.29,17-5,25.63-6.86,5.78-1.27,6.69-5,5.41-9.37-1.45-4.91-5.07-1.65-7.75-1-7.88,2-15.71,4.18-23.57,6.27q-30.56,8.1-61.13,16.17l-.6-2.19,92.49-25.22c-.78-2.17-.87-2.72-1-2.73-46.27-3.88-89.45-20.84-134.09-31.62-8.06-1.95-16.32-5.53-19.1-13.78-2.47-7.32-5.78-5.75-11-4.35Q275.71,461.84,210,479.06c-35.07,9.25-37.71,12.65-37.32,48.8,0,1.42,0,2.84,0,4.25,0,2.59.37,3.73,3.82,4.58,27.76,6.88,55.4,14.24,83,21.73a32.3,32.3,0,0,0,17.71,0Q337.07,542.11,397,526.29c4.47-1.18,8.95-4.22,15.78-1.66-26,7-50.46,13.64-74.93,20.22-18.77,5-37.56,10-56.32,15.06-1.67.45-4.78.18-3.06,3.51.29.56,2,.4,3,.57.3,3.13-4.05,1.77-4.25,4.4-2.31-.23-5.26,1.47-6.43-2.15l3-1c-.4-.27-.82-.79-1.2-.76-1.08.1-2,.51-1.59,1.94-3.63.9-6.91-.48-10.31-1.4-28-7.56-56-14.92-83.88-22.72-5.13-1.43-6.82-1-6.8,4.71q.13,49.46-.24,98.9c0,4.49,1.18,6.9,6,8.17q65.22,17.13,130.29,34.8c4.87,1.31,7.22.63,7.1-5.17-.45-21.25-.58-42.5-.82-63.76,2.82,1.14,5.21-.64,7.78-1.16,4.84,1.4,8.72-1.41,14.49-2.79l-14.49-2.48c-7.3-4.59-5.25-10.36-2.06-16.28,15.19,4.36,30.05,10.23,45.82,11.93l.62-2.67-46.41-11.83-4.66-.8V582c-2.93,4.13-1,7.76-3.94,9.31-1.55-12.51-4.81-15.15-23.45-19l2.52-3.68Zm136.26,31.58c-2.86-1.4-5.38.68-8.09.8l-33.16,8.85-14.85,4.07c-4.35,1.77-9.93.47-13.39,5.14,5.82,2.17,10.32-.84,15-2.85,4.58-2.61,11.67,2.77,14.75-4.62l10.18-.59c0,2.1,0,3.51,3,4.29,36.82,9.65,73.55,19.65,110.37,29.32,3.94,1,8.45,1.84,12.15-1.46l4.9-1.16c-2.59-1.13-3.66.28-4.89,1.18-18.89-2.74-36.8-9.42-55.28-13.84C437,623.38,414,615.4,390.1,610.84c5.75-1.65,11.11-4.94,17.44-4.2a18.06,18.06,0,0,0,3.53,1.85q44.06,11.79,88.15,23.46c10.8,2.86,21.34,7,33,8-.48-3.61-2.58-3.18-4.16-3.6-26.89-7.16-53.72-14.54-80.68-21.39-13.19-3.35-25.76-9.91-40-8.22.29-2.82,3.14-1.79,4.51-3,2.19-2.52,8.1,3.48,8.29-3.62l6.24-.36,21.69-3.89a15.43,15.43,0,0,0,3.4,1.93c34.7,9.29,69.38,18.6,104.13,27.67,5.22,1.36,10.35,4.69,16.42,1L456.64,595.67c8.7-9.46,21.12-7.53,32-10.41.78.61,1.46,1.55,2.34,1.78q58.26,15.48,116.52,30.89c2.17.58,4,1.47,5.55-2l-115.8-31c3.34-5.9,8.9-6.55,14.85-6.28-.77,3.56,1.54,3.71,4.19,4.39,27.06,7,54.08,14.14,81.11,21.26,12,3.16,23.64,7.89,36.42,7.58-17-5.62-34.11-10.65-51.42-14.95-23.54-5.84-46.55-13.74-70.47-18.1,5.73-1.49,10.81-5.61,17.24-4.24,27.58,9.71,56.2,15.66,84.35,23.31,13,3.52,25.69,8.17,39.69,7.26l-115.4-30.94c3.41-5.71,8.86-6.57,14.81-6.23-.79,4.61,2.75,3.75,5.36,4.43,29.42,7.75,58.81,15.63,88.23,23.37,9,2.36,17.65,6.51,27.36,5.22-16.7-5.62-33.53-10.64-50.57-14.79-23.59-5.76-46.58-13.81-70.54-18.06,5.66-1.69,10.74-5.76,17.2-4.2C600,574.29,631.35,581,662.27,589.4c10.25,2.78,20.25,7,31.28,6-29.64-8.9-59.53-16.72-89.27-25.1-8.58-2.42-18.14-2.27-25.47-8.53,11-5.64,22.49-9.36,35.07-8.59-.77.31-2.14-.18-1.94,1.4,0,.22.45.49.74.57,27.28,7.17,54.52,14.45,81.85,21.41,13,3.3,25.55,8.59,39.58,9.07-1-3.69-5.39-1.43-5.52-4.87.45-.19.89-.37,1.35-.53a3.32,3.32,0,0,1,.17.34l-1.34.14c-2.38.61-4.89,1.69-6.18-1.69l2.33-1.23c-.27-.14-.53-.39-.8-.39-1.15,0-1.64.57-1.37,1.72-3.94,1.47-7.43-.53-11-1.5Q664.34,565,617,552.27c5.86-5.7,13.49-6.51,21-7.38,2.49-.29,4.11-.84,3.68-3.71-.51-3.35-2.59-2.39-4.68-1.78-3.73,1.09-7.5,2.05-11.25,3.08L426.45,596.83C424.49,598.32,421.12,596.8,419.91,599.89ZM343.19,611.4c-8.21-.88-15.7-5.66-24.41-4.14,8.11,2.3,15.25,8.48,24.63,5.64L351,612C347.72,607.77,345.47,609.82,343.19,611.4Zm132.42-34.94c2.68.27,5.43,1,7.86-1-12.15-6.9-97-28.3-103-25.44,10,2.6,19.4,4.72,28.62,7.54,22.09,6.75,45.09,10.29,66.61,19l-5.24,1.26C472.34,578,474.43,578.84,475.61,576.46Zm81.11-21.15c2-1.35,6.23,1.7,6.31-3.42L462.9,525.27,462,528.6c12,3.22,24.12,6.13,36,9.73,19.47,5.9,39.87,8.59,58.63,16.94l-5.37,1.11C553.73,558.28,555.07,556.08,556.72,555.31ZM416.08,593.64c2.72-1.92,7.17.56,8.93-3.34L319.39,562.38l-.86,3.29c19.12,5.06,38.41,9.6,57.32,15.37,13.41,4.09,27.93,4.78,40.19,12.55l-5.53,1C413.17,597,414.43,594.44,416.08,593.64Zm317.37-23.3c5.49-.72,10.36,1.86,15.44,3.12,8.9,2.2,17.64,5.8,26.9-.14-2.5-.91-4.74-1.92-7.08-2.54q-57.86-15.4-115.76-30.7c-2.86-.76-6.49-3.68-8.59-.13-2.67,4.51,2.45,6.22,5.92,8.58-4.08,1.11-6.61-.39-9.33-.92-2.34-.46-4.84-.1-7.27-.1-.06.77-.12,1.54-.17,2.31l120.12,31.64.87-3.29c-6.37-4.17-15.29-2-20.91-8.07Zm-271,156.81c3.5-1,4.23,2.76,6.78,4,0-20.68-.22-41.16.16-61.62.1-5.51-1.95-7.29-6.85-7.25-14.31-4-28.6-8-42.94-11.9-29.72-8-59.48-15.89-89.21-23.91-7-1.9-11.14-1.77-10.68,7.8.8,16.26.36,32.59.13,48.89-.06,4.52,1,7,5.8,8.27C371.32,703.18,416.9,715.2,462.5,727.15Zm8.68-31.78c0,8.51.54,17.06-.16,25.51s1.45,9.83,9.82,7.5Q633.54,685.75,786.49,644c4.91-1.34,6.67-3,6.56-8.21-.36-17.36-.64-34.76.09-52.1.34-8-3.7-7.87-8.76-6.66-10.32,2.46-20.52,5.46-30.78,8.2Q617.17,621.71,480.68,658c-7.61,2-10.33,5.17-9.66,12.89C471.72,679,471.18,687.22,471.18,695.37Zm39.17-207.62c3-.44,6.58-.61,10-1.51Q657.92,449.7,795.5,413a52.85,52.85,0,0,0,17.4-7.65c3.19-2.27,6.41-5,4.42-9.66-2.2-5.19-6.17-3.24-9.94-2.24q-149.8,39.7-299.66,79.2c-6.7,1.75-6.9,5.45-6.59,10.7C501.54,490.31,506.58,486.89,510.35,487.75Zm238-84.31c-40.83-10.82-79.3-19.68-116.86-31.41-27.27-8.51-49.34,6-73.8,10.76,43.24,12.87,86.44,24.38,129.65,35.82a8.51,8.51,0,0,0,4.19.12C709.57,413.94,727.59,409,748.35,403.44ZM647.11,527.22c-.48-7.42-.87-14.86-1.46-22.27-.8-10-5.77-16-15.93-18.37-12.39-2.85-24.67-6.28-36.81-10.06-6.08-1.9-11.59-1.55-17.6.07-19.81,5.35-39.73,10.26-59.6,15.36-2.13.54-5.73-.87-5.62,3,.1,3.46,3.61,2.73,5.81,3.33Q541,505.11,566,511.82c24.22,6.5,48.43,13.08,72.72,19.35C642.05,532,647.7,535.36,647.11,527.22Zm37-106.73c-45.2-12.07-87.82-23.47-130.47-34.75a17.7,17.7,0,0,0-8.41-.45c-17.29,4.3-34.49,8.92-51.85,13.47,1.34,4.27,4.41,3.43,6.5,4q60.36,16.15,120.8,32c2,.53,4.3,1.48,6.15,1C645.2,431.05,663.48,426.05,684.14,420.49Zm-254.55-4.68c0,.72,0,1.44,0,2.16,3.24,1,6.44,2.2,9.72,3.06,33.47,8.81,67.56,15.76,100.23,26.9,28.82,9.82,52-5.69,77.63-10.16-42.4-12.32-84.69-23.62-127-34.89a22.49,22.49,0,0,0-11.6-.25C462.24,406.94,445.92,411.4,429.59,415.81ZM368,432.27c2.17,3.49,4.37,3.5,6.39,4,32.82,8.63,66.33,15.31,98.21,26.58,29.47,10.42,54.42-1.54,83.2-8.38-40.17-10.69-78.47-19.45-115.79-31.29C413.67,414.86,392.22,427.51,368,432.27Zm436.45-43.65.29-2.41c-3.55-1.13-7.06-2.42-10.65-3.38-31.44-8.42-63-16.57-94.34-25.23-27.14-7.49-52.53-.75-78.48,7.68,1.17,1.3,1.51,2.06,2,2.2q63.45,17,126.91,33.88a13.51,13.51,0,0,0,7.3-.08C773.11,397,788.78,392.83,804.43,388.62ZM490.25,487.55c2.91-.59,8.06,2.62,8.4-4.12.23-4.46,1.14-8.69-5.47-10.4-42.83-11.06-85.55-22.51-128.31-33.84-3.21-.86-6.51-1.62-8.23,2.28-1.64,3.75-.37,7,2.8,9.36a55.18,55.18,0,0,0,19.23,8.74c27.75,7.31,55.48,14.66,83.25,21.87C471.14,483.84,480.08,487.6,490.25,487.55Zm146.88,45.81c-41.59-11-80.76-21.44-120-31.72-2.42-.63-6.21-4.56-7.32,1.27-.7,3.68-1.22,8,4.55,8.74a33.19,33.19,0,0,1,4.07,1.11c30.34,8,60.78,15.69,91,24.19C618.7,539.55,626.55,537.89,637.13,533.36ZM350.6,621.92c-.33,1.15-.65,2.29-1,3.43,40.9,9.88,81.07,22.68,122.27,31.38l.67-2.69Zm81.38-22-.9,3.55,121.41,31.94.79-3.1Zm161.6-43c-.14,1.25-.27,2.5-.4,3.75l120,31.67.81-3.15ZM491.35,651.47c.27-1.1.55-2.2.83-3.29L369.92,615.76l-.84,3.23Zm101.78-26.74c.26-1.05.53-2.09.8-3.14L473.19,589.4l-.87,3.5ZM605.48,544c.24-1,.47-2,.7-2.92l-103.3-26.93c-.31,1.26-.61,2.52-.92,3.78C536.61,526,570.37,537.86,605.48,544Zm-205-3c-.18,1.19-.35,2.37-.53,3.55,35.12,8.52,69.59,19.68,105,26.91l.63-2.59Zm-59.11,16.37c-.23,1.19-.46,2.38-.7,3.57l102.56,27.16.83-3.27Zm18.1-4.31c16.14,8.51,98.94,28.92,106.42,26.64C429.84,571,395.24,559.62,359.47,553Zm162.82,13.09c.29-1.08.57-2.17.85-3.25l-101-27c-.3,1.16-.6,2.33-.91,3.49Zm25-7.7c-37.2-9.23-71.43-20.2-106.78-26.74C457,539.78,537.86,560.17,547.28,558.41Zm36.91-8.07.46-3.47L481.7,519.64l-.84,3.34ZM403.41,599.17c.32-1.16.65-2.31,1-3.46l-96.45-25.77c-.29,1.1-.58,2.19-.86,3.29ZM316,583.53c.09,3.53,2,3.35,3.68,3.81q26.21,7.13,52.37,14.45c5.92,1.67,11.59,2.66,16.51-1.3C363.72,598.18,340.68,587.44,316,583.53Zm1.42,43.08-1.27.47v61.53h1.27ZM490.9,573.1l-.83.34c.43.25.86.66,1.3.68s.85-.4,1.27-.63C492.06,573.36,491.49,573.22,490.9,573.1ZM576.77,624l-1.8.63a8.89,8.89,0,0,0,1.6.67c.27.07.62-.18.93-.29Zm23.89-4.14-.82.36c.16.22.39.64.46.61a10.27,10.27,0,0,0,1.23-.64Zm16.92-6.43-.84.42c.48.18,1,.37,1.46.51a3.2,3.2,0,0,0,.28-.55Zm-58.21,17.28c0,.23,0,.61.17.68a1.33,1.33,0,0,0,.92.1c.89-.28.82-.69-.19-1C560,630.45,559.67,630.65,559.37,630.73Zm32.48-84.21,1.81-.51c-.24-.21-.5-.6-.73-.59a9.72,9.72,0,0,0-1.76.39C591.39,546,591.61,546.28,591.85,546.52Zm-287.2,22.69a5,5,0,0,0-1.77-.51c-1,.14-1.16.62-.36,1,.28.16.66.4.89.31A6.54,6.54,0,0,0,304.65,569.21Zm353.56,33.6-.9.42c.17.24.43.7.5.68a12.62,12.62,0,0,0,1.35-.73Zm80.92-21.27-.75.55a10.35,10.35,0,0,0,1.68.49c.23,0,.51-.31.77-.48C740.27,581.9,739.7,581.71,739.13,581.54Zm-38.87,11.21a11.46,11.46,0,0,0-1.79-.57c-.21,0-.49.34-.73.53.23.2.5.59.7.56A11.29,11.29,0,0,0,700.26,592.75Z" transform="translate(0.04 -1.39)"/><path class="cls-2" d="M487.35,275.64c20.3-.58,38.93,7.13,58.14,11.83,21.33,5.22,42.4,11.45,63.71,16.75a72.55,72.55,0,0,1,25.73,12c5.57,4.13,1.72,11.41-2,16.21-5.73,7.38-14.5,9.88-23.09,12.18q-84.69,22.63-169.41,45.12c-32.85,8.76-65.75,17.36-98.5,26.47a103.26,103.26,0,0,1-55.85,0c-31.11-8.41-62.31-16.48-93.43-24.89a94.29,94.29,0,0,1-15.88-5.94c-5.93-2.83-11.44-7.18-11.63-14.09s5.33-11.38,11.2-14.33a78.1,78.1,0,0,1,14.79-5.78q135-36.19,270-72.23C469.71,276.66,478.53,276.1,487.35,275.64Zm11.43,71.54Q433.88,330,369,312.76c-3-.8-5.9-2.54-9.26-1.62-18,4.92-36,9.82-56.06,15.27l144,39.15a112.94,112.94,0,0,0,27.95-7.21l4-1.36c9.37-.51,17.85-4.35,27.75-6.65C504,348.39,501.73,346.82,498.78,347.18Zm-119,35.94c-1.41,0-2.91.34-4.22,0-35.47-9.52-71.27-18-106.25-29.08-24.58-7.79-47.93-9.38-72,.52-6.61,2.72-14.21,3.14-20,8.81,1.43.88,2.24,1.66,3.19,1.91q63.54,17.17,127.12,34.21c3.05.81,6.54,2,9.36,1.28,21-5.48,42.48-9.19,62.55-17.85,21.13-2.24,40.68-10.55,63-15.44-4.15-1.64-6.33-2.77-8.64-3.38q-65-17.29-130-34.45c-2.7-.72-5.26-2.2-8.25-1.38L239,343.67c40.49,10.75,78.38,20.6,116.11,31C363.45,377,372.74,377,379.82,383.12ZM367,309.47c41.26,10.92,79.85,19.84,117.54,31.61,19.8,6.18,37.89,7.17,56.94-.55,7.52-3,16.2-3.07,23-7.47-.25-2.94-1.91-2.85-3.15-3.18q-66-17.73-132-35.34a12.67,12.67,0,0,0-6.23-.22C405.38,299,387.68,303.85,367,309.47Zm258.48,8.36c-6.22-5.87-12.48-7.37-18.61-9-30.44-8.1-61.11-15.43-91.31-24.34-28.68-8.47-55.15-1-83.39,8.08,44.54,11.92,87.45,23.57,130.5,34.7,4.93,1.28,8.93,5.59,15,3.8C593.05,326.46,608.66,322.43,625.45,317.83ZM325.71,414.57c3-.64,8.61-1.57,14.08-3Q473.34,376,606.86,340.34c6.54-1.74,12.88-4,18.61-7.62,3-1.9,7.19-4.31,5.18-8.06-1.71-3.2-5.73-.36-8.66.43q-89.73,24.17-179.43,48.37-59.47,16.05-118.88,32.28c-2.47.68-6.85-.45-6.37,5C317.68,414.88,320.06,415,325.71,414.57Zm-19.53.37c3-.65,7.36,2,8.07-4,.53-4.38-2.49-4.25-5.12-5q-66-17.82-132-35.58c-2-.53-5-2.61-6.3,1-.95,2.71,1,4.72,3,6.24,6.37,4.71,13.7,7.28,21.26,9.3,26,6.92,51.93,13.93,77.95,20.68C284,410.51,294.77,414.07,306.18,414.94Z" transform="translate(0.04 -1.39)"/><path class="cls-1" d="M510.35,487.75c-3.77-.86-8.81,2.56-9.22-4.36-.31-5.25-.11-8.95,6.59-10.7q149.91-39.33,299.66-79.2c3.77-1,7.74-2.95,9.94,2.24,2,4.68-1.23,7.39-4.42,9.66A52.85,52.85,0,0,1,795.5,413q-137.6,36.58-275.18,73.2C516.93,487.14,513.34,487.31,510.35,487.75Z" transform="translate(0.04 -1.39)"/><path class="cls-1" d="M490.25,487.55c-10.17.05-19.11-3.71-28.33-6.11-27.77-7.21-55.5-14.56-83.25-21.87a55.18,55.18,0,0,1-19.23-8.74c-3.17-2.36-4.44-5.61-2.8-9.36,1.72-3.9,5-3.14,8.23-2.28C407.63,450.52,450.35,462,493.18,473c6.61,1.71,5.7,5.94,5.47,10.4C498.31,490.17,493.16,487,490.25,487.55Z" transform="translate(0.04 -1.39)"/><path class="cls-1" d="M448.07,595.89l-21.69,3.89.07-2.95,199.32-54.35c3.75-1,7.52-2,11.25-3.08,2.09-.61,4.17-1.57,4.68,1.78.43,2.87-1.19,3.42-3.68,3.71-7.54.87-15.17,1.68-21,7.39l-3.11.89c-12.58-.77-24.06,3-35.07,8.59l.24.16c-1.87-2-3.74-1.46-5.61,0l.3-.11c-1.5.69-4.38-1.19-4.35,2.34l.23-.16c-6.46-1.56-11.54,2.51-17.2,4.2l.17-.18c-6-.33-11.41.53-14.82,6.24l-3.08,0c-2.12-1.73-4.24-3.54-5.78.56l.22-.16c-6.43-1.37-11.51,2.75-17.24,4.24l.17-.18c-5.95-.27-11.51.38-14.85,6.28h-2.92c-2.16-2.15-4.23-3.2-5.91.48l.22-.16c-10.84,2.88-23.26,1-32,10.41l-2.74,0c-2.18-2.29-4.25-3-6,.41Z" transform="translate(0.04 -1.39)"/><path class="cls-1" d="M462.5,727.15l.09-64.92c4.9,0,7,1.74,6.85,7.25-.38,20.46-.16,40.94-.16,61.62C466.73,729.91,466,726.11,462.5,727.15Z" transform="translate(0.04 -1.39)"/><path class="cls-1" d="M317.38,626.61v62h-1.27V627.08Z" transform="translate(0.04 -1.39)"/><path class="cls-1" d="M318.15,594.63l0,2.57c-3.19,5.92-5.24,11.69,2.06,16.28v5.27c-2.57.52-5,2.3-7.78,1.16a4.8,4.8,0,0,1-.65-5.35c3.73-6.68.58-14,1.92-20.9l-.18.17Z" transform="translate(0.04 -1.39)"/><path class="cls-1" d="M411.85,603.76c-1.37,1.2-4.22.17-4.51,3l.19-.11c-6.32-.74-11.68,2.55-17.43,4.2l.26-.15-10.18.59-1.52-1.74,33.16-8.85Z" transform="translate(0.04 -1.39)"/><path class="cls-1" d="M365.43,615.9c-4.69,2-9.19,5-15,2.85,3.46-4.67,9-3.37,13.39-5.14Z" transform="translate(0.04 -1.39)"/><path class="cls-1" d="M363.81,613.61l14.85-4.07,1.52,1.74c-3.08,7.39-10.17,2-14.75,4.62Z" transform="translate(0.04 -1.39)"/><path class="cls-1" d="M343.41,612.9a1.2,1.2,0,0,1-.22-1.5c2.28-1.58,4.53-3.63,7.83.57Z" transform="translate(0.04 -1.39)"/><path class="cls-1" d="M310.23,593.72a10.58,10.58,0,0,1-1-1.54c-.09-.22.2-.6.31-.9,3-1.55,1-5.18,3.94-9.31v11.86l.18-.17Z" transform="translate(0.04 -1.39)"/><path class="cls-1" d="M286.1,572.31l-2.34-1c0-1,0-2.11.05-3.16l-.16.18,5,.32Z" transform="translate(0.04 -1.39)"/><path class="cls-1" d="M281.54,564l1.9.56.21,3.76.16-.18-6.63.07.11.19C277.49,565.76,281.84,567.12,281.54,564Z" transform="translate(0.04 -1.39)"/><path class="cls-1" d="M416.08,593.64c-1.65.8-2.91,3.32-5.57,1l5.53-1Z" transform="translate(0.04 -1.39)"/><path class="cls-1" d="M475.61,576.46c-1.18,2.38-3.27,1.55-5.19,1.33l5.24-1.26Z" transform="translate(0.04 -1.39)"/><path class="cls-1" d="M490.91,573.09l1.73.4c-.42.23-.85.64-1.27.63s-.87-.43-1.3-.68C490.35,573.33,490.63,573.22,490.91,573.09Z" transform="translate(0.04 -1.39)"/><path class="cls-1" d="M515.88,642.86c1.23-.9,2.3-2.31,4.89-1.18l-4.9,1.16Z" transform="translate(0.04 -1.39)"/><path class="cls-1" d="M556.72,555.31c-1.65.77-3,3-5.41,1.07l5.37-1.11Z" transform="translate(0.04 -1.39)"/><path class="cls-1" d="M339.91,619.93c2.52-.58,5-2.2,7.73-.39-1.14,3.27-4.07,1.43-6,2.29C341.07,621.2,340.49,620.56,339.91,619.93Z" transform="translate(0.04 -1.39)"/><path class="cls-1" d="M341.66,621.83c-1.58,2.92-5.1,2.64-5.85,1-.95-2.06,2.5-2.07,4.1-2.9C340.49,620.56,341.07,621.2,341.66,621.83Z" transform="translate(0.04 -1.39)"/><path class="cls-1" d="M576.78,624l.72,1c-.31.11-.66.36-.93.29a8.89,8.89,0,0,1-1.6-.67Z" transform="translate(0.04 -1.39)"/><path class="cls-1" d="M600.66,619.88l.87.33a10.27,10.27,0,0,1-1.23.64c-.07,0-.3-.39-.46-.61Z" transform="translate(0.04 -1.39)"/><path class="cls-1" d="M617.58,613.45l.9.38a3.2,3.2,0,0,1-.28.55c-.5-.14-1-.33-1.46-.51Z" transform="translate(0.04 -1.39)"/><path class="cls-1" d="M559.37,630.73c.3-.08.64-.28.9-.2,1,.29,1.08.7.19,1a1.33,1.33,0,0,1-.92-.1C559.4,631.34,559.42,631,559.37,630.73Z" transform="translate(0.04 -1.39)"/><path class="cls-1" d="M591.85,546.52c-.24-.24-.46-.48-.68-.71a9.72,9.72,0,0,1,1.76-.39c.23,0,.49.38.73.59Z" transform="translate(0.04 -1.39)"/><path class="cls-1" d="M271,566.38c-.43-1.43.51-1.84,1.59-1.94.38,0,.8.49,1.2.76l-3,1Z" transform="translate(0.04 -1.39)"/><path class="cls-1" d="M658.21,602.81l.95.37a12.62,12.62,0,0,1-1.35.73c-.07,0-.33-.44-.5-.68Z" transform="translate(0.04 -1.39)"/><path class="cls-1" d="M722.75,579.11c-.27-1.15.22-1.73,1.37-1.72.27,0,.53.25.8.39L722.59,579Z" transform="translate(0.04 -1.39)"/><path class="cls-1" d="M739.13,581.52l1.7.58c-.26.17-.54.51-.77.48a10.35,10.35,0,0,1-1.68-.49Z" transform="translate(0.04 -1.39)"/><path class="cls-1" d="M700.26,592.75a11.29,11.29,0,0,1-1.82.52c-.2,0-.47-.36-.7-.56.24-.19.52-.56.73-.53A11.46,11.46,0,0,1,700.26,592.75Z" transform="translate(0.04 -1.39)"/><path class="cls-1" d="M325.71,414.57c-5.65.45-8,.31-8.4-3.87-.48-5.41,3.9-4.28,6.37-5q59.38-16.31,118.88-32.28,89.7-24.21,179.43-48.37c2.93-.79,7-3.63,8.66-.43,2,3.75-2.21,6.16-5.18,8.06-5.73,3.66-12.07,5.88-18.61,7.62q-133.54,35.6-267.07,71.21C334.32,413,328.71,413.93,325.71,414.57Z" transform="translate(0.04 -1.39)"/><path class="cls-1" d="M306.18,414.94c-11.41-.87-22.22-4.43-33.16-7.27-26-6.75-52-13.76-77.95-20.68-7.56-2-14.89-4.59-21.26-9.3-2.06-1.52-4-3.53-3-6.24,1.27-3.63,4.34-1.55,6.3-1q66.06,17.65,132,35.58c2.63.71,5.65.58,5.12,5C313.54,416.9,309.19,414.29,306.18,414.94Z" transform="translate(0.04 -1.39)"/><path class="cls-1" d="M447.66,365.56c8.21-6.69,17.47-9.3,27.95-7.21A112.94,112.94,0,0,1,447.66,365.56Z" transform="translate(0.04 -1.39)"/><path class="cls-1" d="M479.61,357c4.06-7.8,14.58-3,19.17-9.81,3-.36,5.19,1.21,8.58,3.16C497.46,352.64,489,356.48,479.61,357Z" transform="translate(0.04 -1.39)"/><path class="cls-2" d="M551.85,669.94c-2.58-.8-6.07-.05-5.76-3.7.25-3,3.19-1.84,5.12-2.11,6.29-.89,12.5-1.75,18-5.61,2.62-1.85,6.72-2.48,8.08,1.37,1.46,4.11-2.69,3.89-5.29,4.59C565.15,666.3,558.34,668.18,551.85,669.94Z" transform="translate(0.04 -1.39)"/><path class="cls-2" d="M715,626.6c-2.78-.67-6.39.54-6.71-2.65-.41-4.06,3.41-2.24,5.48-2.62,6.6-1.21,13-2.69,19-6,1.77-1,6-2.19,6.93,1.8.72,3.08-2,3.82-4.65,4.42C728.15,623.09,721.34,625,715,626.6Z" transform="translate(0.04 -1.39)"/><path class="cls-2" d="M310.23,593.72l3.44-.06c-1.34,6.9,1.81,14.22-1.92,20.9Q311,604.14,310.23,593.72Z" transform="translate(0.04 -1.39)"/><path class="cls-2" d="M277.18,568.2l6.63-.07c0,1,0,2.11-.05,3.16C281.79,569.78,278.32,571.47,277.18,568.2Z" transform="translate(0.04 -1.39)"/><path class="cls-1" d="M180.55,586.33c-.6.36-1.15.95-1.7.95s-1-.61-1.58-.95c.53-.34,1.06-.94,1.59-.94S180,586,180.55,586.33Z" transform="translate(0.04 -1.39)"/><path class="cls-2" d="M661,551.19c11,1.5,21.79,3.7,31.85,8.62l.17-.21c-11.18-.83-22.11-2.59-31.87-8.65Z" transform="translate(0.04 -1.39)"/><path class="cls-2" d="M722.74,568.21c-7.41-1-15.11-1.14-21.12-6.63l-.14.24c7.43,1,15.1,1.2,21.12,6.63Z" transform="translate(0.04 -1.39)"/><path class="cls-2" d="M733.59,570.1a10.61,10.61,0,0,1-10.84-1.89l-.15.24a10.24,10.24,0,0,1,10.85,1.89Z" transform="translate(0.04 -1.39)"/><path class="cls-2" d="M661.13,551c-2.89,1.58-5.48.61-10-1.63,4.92-.54,7.64-.84,9.9,1.87Z" transform="translate(0.04 -1.39)"/><path class="cls-2" d="M701.62,561.58c-3.32,1.28-6.49,1.93-8.62-2l-.17.21c3.17-.56,6.23-.64,8.65,2Z" transform="translate(0.04 -1.39)"/><path class="cls-2" d="M534.69,574.21l-5.79.56C530.45,570.67,532.57,572.48,534.69,574.21Z" transform="translate(0.04 -1.39)"/><path class="cls-2" d="M453.9,595.65l-6,.41C449.65,592.66,451.72,593.36,453.9,595.65Z" transform="translate(0.04 -1.39)"/><path class="cls-2" d="M494.29,584.94l-5.91.48C490.06,581.74,492.13,582.79,494.29,584.94Z" transform="translate(0.04 -1.39)"/><path class="cls-2" d="M579.05,561.92c-1.87.63-3.74,1.19-5.61,0C575.31,560.46,577.18,559.87,579.05,561.92Z" transform="translate(0.04 -1.39)"/><path class="cls-2" d="M573.74,561.8c-.24,3-2.58,2.16-4.35,2.34C569.36,560.61,572.24,562.49,573.74,561.8Z" transform="translate(0.04 -1.39)"/></svg>