<svg id="Layer_1" data-name="Layer 1" xmlns="http://www.w3.org/2000/svg" viewBox="0 0 1000.75 999.83"><defs><style>.cls-1{fill:#c4c4c4;}.cls-2{fill:#3f3f3f;}</style></defs><path class="cls-1" d="M-.71,498.42C-3,227,223.12-.6,499.9-.29c274.15.3,504.59,226.92,500,508.62-4.3,266-224.07,491.92-502.47,491.21C222.62,998.83-4,772.35-.71,498.42Zm989.52,1.42C986.71,229.1,771.93,11.23,499.2,11.37S13.78,228.63,10.31,492.6c-3.63,276,217.26,495.57,488.55,495.46C771.81,987.94,986.55,770.58,988.81,499.84Z" transform="translate(0.75 0.29)"/><path class="cls-2" d="M560.47,509l205.45,33.8c13.61,2.24,27.21,4.61,40.85,6.67,7,1,9.54,4.91,9.48,11.65q-.25,26.08,0,52.16c.07,6.83-2.84,10.49-9.59,11.7-10.12,1.83-20.13,4.25-30.26,6-5.06.86-7.72,2.83-6.88,8.29,1.14,7.5-2.46,15.51,2.94,22.63,1.85,2.44-.51,5-2.67,6-6,3-12.41,2.69-18.54.39-2.87-1.08-4.25-3.75-3-7,.37-1,1.36-1.73,1.63-2.7,4.94-17.7.68-22.46-16.93-18.9q-97.49,19.71-195,39.46a9.18,9.18,0,0,0-1,.23c-5.25,1.75-14.07-1.49-15.54,3.31-2.37,7.66-3.13,16.93.85,24.82,3,5.87.24,7.43-4.4,9.15a20.13,20.13,0,0,1-15.57-.75c-7.76-3.43-.87-8.3-.82-12.53.07-6-.23-12.08.16-18.09.42-6.26-1.25-9.09-8.28-10.46C434.14,663.34,375.09,651.26,316,639.37c-26.77-5.38-53.59-10.51-80.28-16.22-8.51-1.81-13.92-1.74-12,9.29.89,5.08-1.17,10.51,2.64,15.32,2.34,2.93,0,5.42-2.7,6.74a20.49,20.49,0,0,1-17.54.31c-3.24-1.37-5.27-3.53-3.25-7.48a18.33,18.33,0,0,0,1.92-6c2.53-20.79,1.23-22.64-19-27.85-18.44-4.75-19.21-5.76-19.21-25.43q0-69.74,0-139.46c0-17.34,1.66-19.67,18.55-22.05,9.18-1.29,17.61-1.65,15.5-15-1.08-6.76,5.92-7.25,10.46-8.16,30.5-6.1,61.07-11.86,91.61-17.76,18-3.48,36-7,54-12.43q-37.68-6.48-75.37-12.94c-22.38-3.81-44.8-7.4-67.14-11.43-4.44-.8-10.83-.49-10.4-8,.38-6.6,5.72-5.87,10.2-6.65q102.84-17.94,205.67-36c16-2.81,32.34-4.56,48-8.73,22.77-6.07,45-2.84,67.41.75q140.27,22.36,280.57,44.49a21.69,21.69,0,0,1,3.14.55c5.4,1.71,13.28.65,13.21,9.26-.06,8.16-7.6,7.34-12.73,8.34-42.46,8.28-85,16.31-127.47,24.39-3.1.59-6.35.6-9.91,3.48,36.13,6,71.42,11.82,106.71,17.64,10.82,1.78,21.62,3.74,32.49,5.13,8.87,1.14,12,5.75,11.37,14.44a222.1,222.1,0,0,0-.06,24.48c.33,8.42-2.69,12.67-11.66,14.34C735.3,472.74,650,489.06,564.6,505.26c-3.38-.19-6.94-1-9.09,2.82ZM187.11,439.11c-2.16-4.37,5.3-2.92,3.77-7.56-7.11,2.77-18.73-2.69-18.7,12.11q.13,76-.06,152c0,5.41,1.26,9.59,7.07,9.47,6.55-.14,3.28-5.78,3.3-8.72.22-48.17.1-96.34.23-144.51,0-4.66-1.85-10.4,4.6-13-4.47,35.87-.54,71.81-2.19,108l277.29-50.58C441,489,420,489.17,399.84,484.23c-22.35-5.47-45.25-8.71-67.95-12.65-4.94-.86-10.52-2.92-13.67,4.1-1.64,3.66-2.58.93-3.68-1.07-4.4-8-12.4-9.1-20.3-9.8-14.19-1.24-28.21-4.31-42.26-6.08-10.13-1.27-21.53-4.09-32.12-7.17-1.81-.53-4.48-1.93-5.57.49a4.56,4.56,0,0,0,1.93,5.46c6.29,4.34-3.73,3.67-2.58,7.67.61,2.11-1.93.17-3.62-.93-3.69-2.41-4.52-3.31-.44-6.23,1.89-1.35,2.31-4.74,3.58-7.62-4.2-1.33-11.21-.73-11.62-5.42C200.41,432.13,193.37,437.34,187.11,439.11ZM528.63,674.45c28.16-5.39,56.36-10.59,84.48-16.21,62.9-12.56,125.76-25.37,188.68-37.91,4.93-1,8.83-1.6,8.73-8.07-.25-16.66-.14-33.34,0-50,0-4.65-1.22-6-6.28-4.91-14.53,3.22-29.2,5.75-43.82,8.55l-231.75,44.5-2.85.07q-48.7-8.48-97.4-17-116.22-20.43-232.4-41c-5.68-1-7.59.52-7.46,6.32.3,13.47.45,27-.05,40.43-.27,7,1.93,9.5,9,10.9C281.3,626.62,365,643.7,448.74,660.28c25.67,5.07,51.08,11.62,77.17,14.53ZM567.7,387.51c-10.35,5.84-21.63,5.7-32.77,4.16-18.27-2.52-36.43-5.79-54.64-8.76q-132.85-21.66-265.74-43.29c-2.26-.37-5-1.47-6.13,2.13,1.6,3,4.68,2.76,7.3,3.21q150,25.57,300.1,50.92c11.79,2,23.51,6.55,35.72,4.23Q684.8,374.72,818,348.88c3.5-.68,8.61.46,10.71-4.62-3.5-1.78-6.7-1.06-9.8-.5-44.32,8.06-88.58,16.47-133,24.13-19.51,3.36-38.73,8.76-58.7,9.26.57-2.28,2.54-2,4.2-2.29l116.07-21.12,72-13.11a12.92,12.92,0,0,0-7.21-3.35c-94.17-14.95-188.32-30-282.55-44.58-13.48-2.08-26.74-6.14-41-3.58-79.17,14.19-158.45,27.72-237.64,41.76-8.92,1.58-18.37,1.75-28.16,6.52,2.66.79,3.61,1.18,4.59,1.34C296.45,350,365.2,362.29,434.31,372.12,478.59,378.42,522.08,392.61,567.7,387.51ZM803.63,554.42c.11-.64.23-1.28.34-1.92l-55.65-9C671,530.93,593.65,518.12,516.22,506c-17.05-2.67-34-9-51.51-5.87C375.5,516,286.37,532.27,194.59,548.88c6.32,1.35,10.07,2.28,13.86,3,95,16.74,190,33.61,285,50,14.49,2.5,28.65,7.2,44.11,4.11,64.32-12.83,128.8-24.88,193.2-37.28C755.09,564,779.35,559.17,803.63,554.42Zm17.16-145.06c.1-.59.21-1.18.31-1.77-38.83-6.45-77.61-13.29-116.54-19.17-16-2.41-31.76-7.89-48.4-4.43-20.15,4.2-40.29,8.5-60.6,11.74-19.86,3.16-39.35,10.49-59.91,7.19-41.35-6.62-82.61-13.8-124-20.22-16-2.49-31.8-8.23-48.42-5C326,384.89,288.71,392,251.53,399.53c-11.51,2.34-23.49,3.13-35.95,8.34,2.7.77,3.67,1.15,4.67,1.31,95.23,15.58,190.43,31.29,285.72,46.55,17.33,2.78,34.36,7.24,52.65,3.54,58-11.73,116.36-22.21,174.56-33.22Q777,417.77,820.79,409.36ZM543.09,483c-1.83-6.92,5.66-17.63-10.64-20.17-102.36-15.92-204.57-32.89-306.85-49.37-21.45-3.46-20.93-3.16-21.67,18.1-.32,9.22,3,12.1,11.46,13.61q154,27.57,307.87,55.67C543.08,504.38,543.09,504.32,543.09,483Zm2.38.47c0,3.9.32,7.84-.07,11.7-.66,6.51,1,8.59,8.19,7.2q122.2-23.67,244.53-46.75c31-5.91,30.86-5.92,29.68-36.72-.24-6.45-1.89-7.38-8.16-6.18C734.31,429,648.91,445,563.55,461.2,545.43,464.64,545.47,464.86,545.47,483.42ZM515.11,694.5c0-3.87,0-7.74,0-11.61s-3-4.59-5.71-4.68c-3.32-.11-2.23,2.88-2.26,4.63-.14,7.39,0,14.78-.07,22.17,0,2.72.43,4.83,3.93,4.76,3.28-.07,4.21-1.81,4.15-4.71C515.07,701.54,515.13,698,515.11,694.5ZM210.59,633c0,3.52,0,7,0,10.56,0,2.68.42,5,3.9,4.85,3.15-.14,4.13-2.07,4.11-4.93,0-6.68-.08-13.36,0-20,0-4-3.14-4.47-5.74-4.58-3.26-.15-2.08,2.9-2.2,4.66C210.44,626.7,210.59,629.88,210.59,633Zm553.63,14h.1a39.82,39.82,0,0,0-.07-6.28c-.37-2.33,1.86-6.2-3-6.32-4.06-.11-5.16,2.26-5,6.08.29,5.93,0,11.88.13,17.83,0,2.27.86,4.08,3.65,4,2.48-.08,4-1.3,4.09-3.77C764.31,654.68,764.22,650.84,764.22,647ZM200.73,430.69a49.76,49.76,0,0,0-5.58.05,2.79,2.79,0,0,0-1.5,1.13c.74,1.52,2.08,1.4,3.4.91A38.56,38.56,0,0,0,200.73,430.69Z" transform="translate(0.75 0.29)"/><path class="cls-1" d="M560.47,509l-5-.87c2.15-3.78,5.71-3,9.09-2.82Z" transform="translate(0.75 0.29)"/><path class="cls-1" d="M820.79,409.36q-43.8,8.36-87.61,16.69c-58.2,11-116.51,21.49-174.56,33.22-18.29,3.7-35.32-.76-52.65-3.54-95.29-15.26-190.49-31-285.72-46.55-1-.16-2-.54-4.67-1.31,12.46-5.21,24.44-6,35.95-8.34C288.71,392,326,384.89,363.25,377.69c16.62-3.22,32.4,2.52,48.42,5,41.37,6.42,82.63,13.6,124,20.22,20.56,3.3,40.05-4,59.91-7.19,20.31-3.24,40.45-7.54,60.6-11.74,16.64-3.46,32.42,2,48.4,4.43,38.93,5.88,77.71,12.72,116.54,19.17C821,408.18,820.89,408.77,820.79,409.36Z" transform="translate(0.75 0.29)"/><path class="cls-1" d="M543.09,483c0,21.37,0,21.43-19.83,17.84q-153.93-27.89-307.87-55.67c-8.46-1.51-11.78-4.39-11.46-13.61.74-21.26.22-21.56,21.67-18.1,102.28,16.48,204.49,33.45,306.85,49.37C548.75,465.32,541.26,476,543.09,483Z" transform="translate(0.75 0.29)"/><path class="cls-1" d="M545.47,483.42c0-18.56,0-18.78,18.08-22.22C648.91,445,734.31,429,819.64,412.67c6.27-1.2,7.92-.27,8.16,6.18,1.18,30.8,1.36,30.81-29.68,36.72q-122.28,23.31-244.53,46.75c-7.22,1.39-8.85-.69-8.19-7.2C545.79,491.26,545.47,487.32,545.47,483.42Z" transform="translate(0.75 0.29)"/><path class="cls-1" d="M567.7,387.51l-.13.33c4.22.49,8.55,1.55,12-2.23l-.24.1c8.29.71,16.25-.4,23.68-4.37l-.22.11c8.67.89,16.88-.87,24.78-4.35l-.3,0c20-.5,39.19-5.9,58.7-9.26,44.38-7.66,88.64-16.07,133-24.13,3.1-.56,6.3-1.28,9.8.5-2.1,5.08-7.21,3.94-10.71,4.62q-133.17,25.88-266.45,51.23c-12.21,2.32-23.93-2.26-35.72-4.23Q365.7,370.79,215.72,345c-2.62-.45-5.7-.2-7.3-3.21,1.11-3.6,3.87-2.5,6.13-2.13q132.88,21.61,265.74,43.29c18.21,3,36.37,6.24,54.64,8.76C546.07,393.21,557.35,393.35,567.7,387.51Z" transform="translate(0.75 0.29)"/><path class="cls-1" d="M528.63,610.39v64.06l-2.72.36q-.06-32.17-.13-64.35Z" transform="translate(0.75 0.29)"/><path class="cls-2" d="M603,381.34c-7.43,4-15.39,5.08-23.68,4.37C586.72,381.69,594.73,380.83,603,381.34Z" transform="translate(0.75 0.29)"/><path class="cls-2" d="M627.54,377.1c-7.9,3.48-16.11,5.24-24.78,4.35A45.85,45.85,0,0,1,627.54,377.1Z" transform="translate(0.75 0.29)"/><path class="cls-1" d="M476.53,342.74c-3.86,4-7.65,3.31-13.23,1.12C468.75,339.38,472.65,341.11,476.53,342.74Z" transform="translate(0.75 0.29)"/><path class="cls-2" d="M507.71,298.27c3.17-2.24,6.48-2,10.92-.92C514.64,300.47,511.14,299.22,507.71,298.27Z" transform="translate(0.75 0.29)"/><path class="cls-2" d="M567,325.86h12.26C573.51,328.85,570.17,328.11,567,325.86Z" transform="translate(0.75 0.29)"/><path class="cls-1" d="M414.74,317.23c-6,3.37-9.74,3.56-14.29.85C404.55,313.31,408.52,314.85,414.74,317.23Z" transform="translate(0.75 0.29)"/><path class="cls-1" d="M514.25,358.25c-5.1,2.7-8.73,3-12.33,1.06-.41-.23-.45-2.36-.15-2.49C505.56,355.07,509.35,354.46,514.25,358.25Z" transform="translate(0.75 0.29)"/><path class="cls-2" d="M535.09,373.6c5.65-2.49,8.93-2.33,13.88-1.23C544.31,375.76,541,374.87,535.09,373.6Z" transform="translate(0.75 0.29)"/><path class="cls-1" d="M739.8,337.47c3.73-3.9,7.53-4,12.64-.72C747.79,340.82,743.72,339,739.8,337.47Z" transform="translate(0.75 0.29)"/><path class="cls-2" d="M601,364.26c-6.19,2.17-9.35,2.41-13.53.71C591.25,362,594.53,362.83,601,364.26Z" transform="translate(0.75 0.29)"/><path class="cls-2" d="M619.89,315.51h8.85l.11,1.23h-9.19C619.73,316.33,619.81,315.92,619.89,315.51Z" transform="translate(0.75 0.29)"/><path class="cls-2" d="M698.44,348.85l-9.34.57C691.94,346.13,695.05,345.88,698.44,348.85Z" transform="translate(0.75 0.29)"/><path class="cls-2" d="M448.9,308.42c5.59-1.88,8.69-1.57,13.52-.38C457.49,309.68,454.33,309.75,448.9,308.42Z" transform="translate(0.75 0.29)"/><path class="cls-2" d="M485,323.4h-9.19l-.13-1.5,9.19-.64C484.89,322,484.94,322.68,485,323.4Z" transform="translate(0.75 0.29)"/><path class="cls-2" d="M517.58,314.87c4.26-2,7-1.61,10,0Z" transform="translate(0.75 0.29)"/><path class="cls-2" d="M579.54,385.61c-3.42,3.78-7.75,2.72-12,2.23C571.05,384.36,575.25,384.72,579.54,385.61Z" transform="translate(0.75 0.29)"/><path class="cls-2" d="M424.8,331.57a9.39,9.39,0,0,1,9.36-.14A9.62,9.62,0,0,1,424.8,331.57Z" transform="translate(0.75 0.29)"/><path class="cls-2" d="M422.14,352.56c-2.78,1.61-5.64,2.09-8.64.49C416.35,350.62,419.26,352.17,422.14,352.56Z" transform="translate(0.75 0.29)"/><path class="cls-2" d="M555.15,350.24c-3,1.61-5.92,2.24-8.79.13C549.43,348.48,552.37,349.75,555.15,350.24Z" transform="translate(0.75 0.29)"/><path class="cls-2" d="M636.31,335.52c4.5-4,7.47-2.41,11.71-3.09C644.06,336.39,641,334.21,636.31,335.52Z" transform="translate(0.75 0.29)"/><path class="cls-2" d="M304.21,335.73c-4.4,1.17-7.22,1.9-10.15-.3C297.19,334.05,300.05,334,304.21,335.73Z" transform="translate(0.75 0.29)"/><path class="cls-2" d="M390.64,339.62c-3,1.57-5.94,2.28-8.84.13C384.9,337.89,387.85,339,390.64,339.62Z" transform="translate(0.75 0.29)"/><path class="cls-2" d="M639.93,356.81c3.27-1.48,6.17-1.46,10-.1C646.18,358.66,643.27,358.6,639.93,356.81Z" transform="translate(0.75 0.29)"/><path class="cls-2" d="M518.82,335.74c3-1.14,5.87-2.1,8.75-.06C524.49,337.62,521.58,336.6,518.82,335.74Z" transform="translate(0.75 0.29)"/><path class="cls-2" d="M358.84,325.11c-3.19,1.05-5.95,1.92-8.59,0C353.32,323.19,356.27,324,358.84,325.11Z" transform="translate(0.75 0.29)"/><path class="cls-2" d="M590,342.41c4.3-1.78,7.17-1.92,10.26-.36C597.32,343.93,594.46,343.49,590,342.41Z" transform="translate(0.75 0.29)"/><path class="cls-2" d="M292.15,496.6c7.46,4.8,3.26,9.48.12,14.16C284,506,288.62,501.35,292.15,496.6Z" transform="translate(0.75 0.29)"/><path class="cls-2" d="M211.7,510.58c7.3,3.95,6,8.07,2.45,12.48-1.29,1.58-3.83,2.5-3.26,0,.9-4-7.53-1.73-3.35-5.44C209.84,515.58,210.21,513,211.7,510.58Z" transform="translate(0.75 0.29)"/><path class="cls-2" d="M252,517.77c-7.62-4.89-2.83-9.46.31-14C260.2,508.61,256,513.2,252,517.77Z" transform="translate(0.75 0.29)"/><path class="cls-2" d="M242.15,484.75a12.23,12.23,0,0,0-4.54,7.15c-2.07-2-5.89-4-5.8-5.89.13-2.72,3.07-5.31,4.81-8Z" transform="translate(0.75 0.29)"/><path class="cls-2" d="M371.62,481.88c3.28,4.3,9.27,7.12,2.13,12-1.34.91-2.18,5-3.23.73-.64-2.56-7.54-1.56-3.14-5.23C369.84,487.31,369.9,484.78,371.62,481.88Z" transform="translate(0.75 0.29)"/><path class="cls-2" d="M277.25,484.86c-5-3.14-7.25-6.58-2.3-11.73,1.29-1.35,3.6-2.64,3.26-1-.77,3.76,8.09,2.64,3.18,6.27C278.75,480.31,279.64,483.45,277.25,484.86Z" transform="translate(0.75 0.29)"/><path class="cls-2" d="M332.21,503.86c-5-3.72-6.38-7.22-2.06-12,2.26-2.5,3.83-1.94,3.81.61s8,1.09,2.49,5C334.07,499.15,334.55,501.77,332.21,503.86Z" transform="translate(0.75 0.29)"/></svg>