<svg id="Layer_1" data-name="Layer 1" xmlns="http://www.w3.org/2000/svg" viewBox="0 0 999.63 997.3"><defs><style>.cls-1{fill:#c4c4c4;}.cls-2{fill:#d3d2d2;}.cls-2,.cls-3,.cls-4{stroke:#1d1d1b;stroke-miterlimit:10;}.cls-3,.cls-4{fill:#fff;}.cls-3{stroke-width:0.5px;}</style></defs><path class="cls-1" d="M500.86,2.23C776,1.46,1000.38,223.75,1000,501.56c-.38,276.29-224.28,498.92-503,498C224.35,998.58-3,773.5.41,494,3.74,225.16,225.2.15,500.86,2.23ZM988.15,499.71C987.72,232.88,772.47,13,499.86,13.3,228.66,13.65,12.23,229.6,12,500.1c-.27,270.84,215.57,487.55,487.73,488C772.19,988.55,988.62,768.91,988.15,499.71Z" transform="translate(-0.37 -2.22)"/><rect class="cls-2" x="76.63" y="498.15" width="846" height="107.24" rx="3.89"/><line class="cls-3" x1="243.53" y1="495.66" x2="243.53" y2="605.35"/><line class="cls-3" x1="593.66" y1="495.66" x2="593.66" y2="605.35"/><line class="cls-3" x1="413.44" y1="495.66" x2="413.44" y2="605.35"/><line class="cls-3" x1="753.27" y1="495.66" x2="753.27" y2="605.35"/><path class="cls-4" d="M781.8,458.53a64,64,0,0,1-14.12-1.25c-20.29-4.08-24.63-28.57-37.57-33.87-8.59-3.52-12.24-1.24-47.79,7.5-41.22,10.14-62.1,15.16-74.93,12.51-24.47-5.05-23.67-17.69-45.61-20-23.06-2.44-27.57,11.14-65.16,22.51-30.69,9.28-31.05,1.24-70.58,11.26-34.17,8.65-35.93,15.17-57.56,16.26-30.55,1.53-30.81-11.28-57.56-8.76-10,.94-29.81,8.55-69.5,23.76-15.38,5.9-24.67,9.74-34.75,5-12.81-6-15.41-20.51-25-20-8.47.44-8.84,11.93-21.72,17.51-9.86,4.27-13-1-25,2.5-12.84,3.78-25.17,14.55-23.9,20,1.17,5,13.48,4.78,29.33,5,48.56.69,25.34,4,73.84,3.75,28.22-.12,49.94-1.33,93.39-3.75,33.47-1.86,32-2.17,43.44-2.5,43.88-1.26,75.42,3,93.4,5,100.1,10.92,98.67-15.89,182.44-2.5,37.68,6,81.2-3.49,106.43,0,4.37.61,17.68-14.79,39.09-21.26a101.67,101.67,0,0,1,18.46-3.75" transform="translate(-0.37 -2.22)"/><path class="cls-4" d="M718.17,446.9c-6.41.92-77.92,34.14-85.79,50-1.24,2.49-4,12.18,1.08,17.51,8,8.4,42.41,13.81,57.56,12.51,16.85-1.45,30-9.85,50-7.51,13.61,1.6,16.13,5.3,34.76,7.51,13,1.54,36,2.59,36.92-2.5s-20.65-14.12-22.81-15a100.59,100.59,0,0,0-32.58-7.51c-24.54-1.43-54.94-2.89-90.13-3.75" transform="translate(-0.37 -2.22)"/><path class="cls-4" d="M730.75,487.1c-2,2.67-12,12.36-18.31,12.36" transform="translate(-0.37 -2.22)"/><ellipse class="cls-4" cx="822.46" cy="464.55" rx="49.46" ry="34.88" transform="translate(-85.38 200.13) rotate(-13.34)"/></svg>