<svg id="Layer_1" data-name="Layer 1" xmlns="http://www.w3.org/2000/svg" viewBox="0 0 1000.47 999.45"><defs><style>.cls-1{fill:#c4c4c4;}.cls-2{fill:#3f3f3f;}</style></defs><path class="cls-1" d="M1000,498.84c2.68,274.82-224.64,500.44-499.52,500.71-276.27.28-501.17-227-500.93-500C-.23,225.91,224.72-.21,500.72.11,776.06.42,1001.83,226.55,1000,498.84Zm-10.79,1C987.83,230.45,773.11,12.06,500.84,11.69,227.09,11.31,13,229.78,11.17,496.07,9.29,768.14,226.45,987.86,499.74,988,773.19,988.07,987.64,769.22,989.19,499.84Z" transform="translate(0.47 -0.11)"/><path class="cls-2" d="M808.22,347.78c5.23-1.51,6,2.05,6.27,5.74.36,4.94-2.77,6.67-7.13,7.5-20.89,4-41.75,8.16-62.64,12.14q-58,11-116,22c-2.4.46-4.74,1.24-9.78,2.58,42.49,7,82.3,13.57,122.12,20.09,22.33,3.65,44.69,7.17,67,10.86,6,1,9.26,4.25,9,10.9-.34,9.57-.42,19.17,0,28.73.4,8.56-3.88,12-11.66,13.4q-74.24,13.83-148.41,28c-14.91,2.82-29.79,5.8-44.74,10.49,20.19,3.45,40.36,7,60.56,10.34,40.23,6.73,80.54,13,120.66,20.31,13,2.38,24.48-2.62,36.71-3.68,2.1-.18,4.13-1.06,6.23-1.37,15.83-2.29,19,.39,18.61,16.09-.51,19.5-1.69,39-1.64,58.5,0,10.1-4.14,14.71-13.65,16.72q-94.66,20.05-189.23,40.54Q592.87,690,535.18,702.44c-4.52,1-9,1.71-13.7,1.11-7.83-1-12-4.4-11.72-13.15.3-9.14,3.79-20.49-1.45-26.91s-17.14-4.86-26.12-6.58c-77.31-14.75-154.69-29.18-232-43.84a28.81,28.81,0,0,0-11.48,0c-25.73,5.15-51.51,10-77.26,15-14.07,2.72-18.51-.73-18.52-14.54,0-49,.19-97.92-.16-146.87-.07-9.56,3-14.68,12.71-15.82,6.32-.75,12.54-2.36,18.84-3.34,6.57-1,12.52-1.9,11.31-11.22-.69-5.28,3.87-6.89,8.36-7.76q66.1-12.76,132.18-25.58c19.05-3.69,38.1-7.41,57.27-12.89-15.18-2.69-30.35-5.47-45.56-8q-70.8-12-141.62-23.9c-4.58-.77-9.43-1.26-9.12-7.95.28-6,4.52-6.11,8.85-6.87,84.23-14.68,168.64-28.41,252.55-44.72,32.71-6.36,63.42.43,94.71,5.25,83.41,12.84,166.73,26.26,250.06,39.61,5.16.83,11.12-.3,15.14,4.56a94.91,94.91,0,0,1-9.57-.58C707.51,332.88,616.22,318,524.8,304c-17.33-2.68-34.48-8.68-52.49-5.55Q359.75,318,247.2,337.61c-14,2.44-27.94,5.2-44.13,8.24,17.3,5.49,33.28,4,47.68,10.25-14.69.77-28.66-3.92-43-5.56-5.1-.58-10.23-.83-16.2-1.31,1.78,4.27,3.62,4.3,5.32,4.59q63.39,10.74,126.78,21.49Q421,392,518.44,408.65c3.7.62,9.16,4.59,10.72-3.59.44-2.32,1.63.06,1.72,1,.46,4.73,3.45,3.25,6.21,2.72q132.52-25.44,265-50.95c2.95-.57,7.19.05,8.3-4.37-2.22-1.89-4.35-1.31-6.42-.93-28.22,5.13-56.39,10.64-84.68,15.33-19.86,3.29-39.35,8.93-59.64,9.5.58-2.27,2.53-2,4.19-2.29,22.94-4.19,45.93-8.18,68.81-12.65C757.85,357.49,783.44,354.69,808.22,347.78ZM514.89,614.59l1.47,1.68c0,23.75-.18,47.5,0,71.25,0,3.3-2.51,9.53,3.46,9.16,4.85-.3,2.32-6.23,2.36-9.5.28-20.2.13-40.41.15-60.62,0-4.57-.58-9.54,6.21-10.39-3.88,3.57-3.42,8.07-3.41,12.53.06,19.49.47,39-.17,58.48-.3,9.13,1.88,11.57,11.22,9.52Q687.72,663.45,839.4,631c6.22-1.34,8.36-4.09,8.47-9.87.39-20.55.83-41.11,1.46-61.66.12-4.06-.79-5.89-5.26-5.31-2.69.34-5.46,2-8.25.28-.46-1.77-1.87-1.9-3.31-1.81-.27,0-.51.64-.77,1l4.18.7c-1.93,3.87-6.51,1.31-9,3.72-1-3-3-4-6.07-3,.77,2,4.54.17,4.2,3.41-5.72-1.24-11.35,5.17-17.12.22l5.21-.87c-2.2-1.71-3.87-1.43-5.2.88-.78,2.06-2.08,2.34-3.83,1.14-2.3-1.14-4.63-1.49-8.7.44l8.71-.59c-2.21,5.71-6.84,3.55-10.88,3.34-1.29-4.35-7.19.14-8.4-4.37l3.92-.46,3.55-.72-3.53-.82c-3.47-.74-6.91-1.6-10.4-2.2C729.23,546,680.09,537.78,631,529.24c-24-4.18-47.73-8.17-72.24-1.27-13.1,3.68-27,6.66-41,4.21-25.49-4.45-50.9-9.54-76.5-13.23-16-2.31-31.5-9.09-48.16-6q-76.26,14.31-152.52,28.68c-25.87,4.89-51.72,9.92-77.58,14.88,42.78,9.37,85.43,17.33,128.11,25.18,71.17,13.1,142.4,25.93,213.49,39.47C511.93,622.59,514.05,620.87,514.89,614.59Zm289-180.23c-2.06-4-5.23-3.24-7.89-3.69-45.81-7.63-91.76-14.47-137.37-23.13-33.91-6.43-67.11-8.36-100.82,1.11-16,4.49-32.65,5.75-49.51,2.44-22.26-4.37-44.69-8-67.13-11.34-15-2.26-30.21-8.86-45-6.19C330.19,405.42,264.56,418.78,196.94,432c4.59,1.16,7.29,2,10.05,2.5,96.55,15.71,193.07,31.54,289.68,46.9,14.17,2.25,28.06,6.26,43.12,3.25,57.35-11.46,114.91-21.91,172.38-32.79C742.64,446.07,773.09,440.22,803.84,434.36ZM529.36,495.17l.77.19c0,7.44.45,14.91-.12,22.31-.64,8.32,1.2,10.82,10.44,9Q662,502.79,783.81,479.87c29.63-5.64,29.36-5.46,29.05-34.91-.09-7.83-2.93-8.75-9.46-7.5C727.49,452,651.61,466.64,575.61,480.62c-19.34,3.56-38.35,10.67-58.63,7.36q-151.69-24.74-303.4-49.44c-24.56-4-24.23-4.32-24.1,20.62,0,6.86,2.38,8.94,8.86,10.07,44.71,7.82,89.33,16.07,134,24.21q94.15,17.16,188.3,34.5c6.76,1.25,9.11-.48,8.83-7.27C529.1,512.18,529.36,503.67,529.36,495.17ZM386.91,511c.1-.61.19-1.22.29-1.83Q353.39,503,319.58,496.8c-40.76-7.38-81.53-14.67-122.27-22.17-5.25-1-12.6-.81-11.67-9.16,1.24-11.13-4.86-10.15-12.13-8.35a90.68,90.68,0,0,1-9.4,1.68c-7,.94-10.25,4.12-10.07,11.9q.84,37.71.31,75.45c-.11,7.89,2.85,8.58,9.44,7.32Q275.32,532.07,386.91,511Zm126.15,135c2.55-7.65-1.19-10.19-9.23-11.61-54.07-9.56-108-19.67-162-29.64q-81.48-15-163-30.09c-2.14-.39-4.58-2.52-6.26,1.11-3.6,7.78,1.09,17.26,9.34,18.8,107,20,214,39.9,321,60.33C511.56,656.47,515.05,656,513.06,645.91Zm-4-13.63c1,0,4,1.86,4.46-2.33.37-3.2-1.61-4.45-4.3-5-1.74-.33-3.53-.35-5.28-.68q-112.86-20.92-225.73-41.9-57.48-10.65-115-21.11c-2.77-.5-7.07-2.85-8.25,1.46-1.47,5.35,4,4.52,7,5.72A16.72,16.72,0,0,0,165,569q95.62,17.64,191.25,35.29C406.81,613.54,457.33,622.79,509,632.28ZM226.57,611c.16-.7.31-1.4.47-2.11-13-2.54-25.93-5.23-38.94-7.57-18.31-3.31-18.33-3.2-19-21.2,0-.71,0-1.41,0-2.12.35-7.22-5.25-6.19-9.56-6.82-6.21-.92-4.72,3.8-4.73,7-.07,12.73.35,25.47,0,38.19-.17,6.62,2.24,7.45,8.18,6.28C184.12,618.4,205.36,614.77,226.57,611Zm-76.42,10.74,1.66,0V458l-1.66,0ZM180,453.51c-1.89-1-3.78-2.06-6.23,0Zm-12.17,2.06c-.77-.52-1.22-1.07-1.67-1.07a18.67,18.67,0,0,0-2.92.47c.44.31.87.84,1.33.87A23.44,23.44,0,0,0,167.87,455.57Z" transform="translate(0.47 -0.11)"/><path class="cls-1" d="M803.84,434.36c-30.75,5.86-61.2,11.71-91.67,17.47-57.47,10.88-115,21.33-172.38,32.79-15.06,3-28.95-1-43.12-3.25C400.06,466,303.54,450.18,207,434.47c-2.76-.45-5.46-1.34-10.05-2.5,67.62-13.19,133.25-26.55,199.16-38.41,14.81-2.67,30,3.93,45,6.19,22.44,3.38,44.87,7,67.13,11.34,16.86,3.31,33.53,2.05,49.51-2.44,33.71-9.47,66.91-7.54,100.82-1.11C704.19,416.2,750.14,423,796,430.67,798.61,431.12,801.78,430.36,803.84,434.36Z" transform="translate(0.47 -0.11)"/><path class="cls-1" d="M529.36,495.17c0,8.5-.26,17,.09,25.5.28,6.79-2.07,8.52-8.83,7.27q-94.11-17.49-188.3-34.5c-44.65-8.14-89.27-16.39-134-24.21-6.48-1.13-8.82-3.21-8.86-10.07-.13-24.94-.46-24.65,24.1-20.62Q365.26,463.41,517,488c20.28,3.31,39.29-3.8,58.63-7.36,76-14,151.88-28.64,227.79-43.16,6.53-1.25,9.37-.33,9.46,7.5.31,29.45.58,29.27-29.05,34.91Q662.09,503,540.45,526.68c-9.24,1.81-11.08-.69-10.44-9,.57-7.4.12-14.87.12-22.31Z" transform="translate(0.47 -0.11)"/><path class="cls-1" d="M660,377.29l-.3,0c20.29-.56,39.78-6.2,59.64-9.49,28.29-4.69,56.46-10.2,84.68-15.33,2.07-.38,4.2-1,6.42.93-1.11,4.42-5.35,3.8-8.3,4.37q-132.48,25.6-265,50.95c-2.76.53-5.75,2-6.21-2.72-.09-.93-1.28-3.31-1.72-1-1.56,8.18-7,4.21-10.72,3.59Q421,392.15,323.61,375.31q-63.37-10.83-126.78-21.49c-1.7-.29-3.54-.32-5.32-4.59,6,.48,11.1.73,16.2,1.31,14.38,1.64,28.35,6.33,43,5.56l-.25-.09c4.24,3.65,9.19,2.84,14.11,2.21l-.22-.1c.89,2.69,3.32,2.12,5.29,2.44C334.4,371.13,399.07,382,463.84,392.11c32.37,5.08,64.59,14.34,97.84,4.57,16.45-4.83,34.11-4.52,50.3-10.88l-.23.1c8.29.7,16.25-.37,23.67-4.36l-.22.1C643.86,382.53,652.07,380.78,660,377.29Z" transform="translate(0.47 -0.11)"/><path class="cls-1" d="M782.45,559.33l2.35-.77c1.21,4.51,7.11,0,8.4,4.37l.09-.23-10.88-.12.11.18Z" transform="translate(0.47 -0.11)"/><path class="cls-1" d="M826.88,558l-1.87.36c.34-3.24-3.43-1.39-4.2-3.41C823.89,554,825.88,555,826.88,558Z" transform="translate(0.47 -0.11)"/><path class="cls-1" d="M180,453.51h-6.23C176.26,451.45,178.15,452.54,180,453.51Z" transform="translate(0.47 -0.11)"/><path class="cls-1" d="M804.07,559.74v-.15l-8.71.59C799.44,558.25,801.77,558.6,804.07,559.74Z" transform="translate(0.47 -0.11)"/><path class="cls-1" d="M807.9,558.6c1.33-2.31,3-2.59,5.2-.88l-5.21.87Z" transform="translate(0.47 -0.11)"/><path class="cls-1" d="M835.92,554.29l-4.18-.7c.26-.35.5-1,.77-1,1.44-.09,2.85,0,3.31,1.81Z" transform="translate(0.47 -0.11)"/><path class="cls-1" d="M167.87,455.57a23.44,23.44,0,0,1-3.26.27c-.46,0-.89-.56-1.33-.87a18.67,18.67,0,0,1,2.92-.47C166.65,454.5,167.1,455.05,167.87,455.57Z" transform="translate(0.47 -0.11)"/><path class="cls-1" d="M788.72,558.1a2.26,2.26,0,0,0,0-1.54l3.53.82Z" transform="translate(0.47 -0.11)"/><path class="cls-2" d="M740.13,572.16c1.82,3.69-1.49,3.07-3.08,3.37-9.35,1.81-18.73,3.44-28.1,5.13a6.24,6.24,0,0,1-1-.86c-2.91-3.28-5.83-3.15-8.75,0h0l-1.76.89c-2.62-1-5.23-1.53-7.87.23a7.52,7.52,0,0,0,7.88-.41c-.93,6.67-6.72,2.72-9.9,4.5a9.4,9.4,0,0,1-1-.92c-2.9-3.38-5.82-3.18-8.74,0l.23-.11-14.23-.15c14.63-4.91,29.85-6.9,45-9.23a4.58,4.58,0,0,1,.94.82c2.92,3.25,5.84,3.11,8.77,0l.73-.58a.59.59,0,0,1,1-.35c2.57,1,5.14,1.53,7.75-.12a7.74,7.74,0,0,0-7.76.29c5.18-6.15,16.81-7.49,19.83-2.28-2.4-1-4.8-1.8-7.44.13A8.34,8.34,0,0,0,740.13,572.16Z" transform="translate(0.47 -0.11)"/><path class="cls-2" d="M622.76,590.47c14-1.3,27.27-6.42,41.37-6.84-.59,4.57-6.74.43-7.49,4.76l-1.77.74c-2.6-.88-5.22-2-7.76.57a8,8,0,0,0,7.77-.75c-.79,6.83-6.74,2.71-9.85,4.62-.36-.33-.69-.66-1-1-3.62-4.26-7.25-2.71-10.9,0l.22-.13C629.91,591.2,625.6,594.84,622.76,590.47Z" transform="translate(0.47 -0.11)"/><path class="cls-2" d="M782.41,562.58l10.88.12c-13.31,6.19-27.94,6.63-42,9.67a4.3,4.3,0,0,0-.76-1.08c-.07-.77-.14-1.54-.2-2.32,3.44-1.4,7.86,2.12,10.74-2.13,3.44-1.53,8,2.23,10.82-2.32l.49-.88,1,.13C776.51,564.12,779.85,566.31,782.41,562.58Z" transform="translate(0.47 -0.11)"/><path class="cls-2" d="M622.63,598.9c-6.87,0-13.27,4-20.33,2.41,1.43-3.74,6.58-.63,8.32-4.57H600.06c6.16-4.57,14.06-3,20.7-5.82.76,4.59-4.28,2.65-5.71,4.71C616.94,598.66,621.65,594.26,622.63,598.9Z" transform="translate(0.47 -0.11)"/><path class="cls-1" d="M600.06,596.74h10.56c-1.74,3.94-6.89.83-8.32,4.57l.2-.29c-3.78.12-7.81-1-11,2.24l.3-.12c-3.78.12-7.8-.9-11,2.24l.3-.09-3.58-.65a.94.94,0,0,1,.23-1.06c.54-2-1-2.63-2.33-3.39,1.17-1.6,2.74-1.79,4.51-1.28,3.37,3.3,6.37,4.07,8.48-1.24.38-1.18,1.2-1.27,2.2-.87,3.29,3.94,6.45,2.42,9.59-.21Z" transform="translate(0.47 -0.11)"/><path class="cls-1" d="M622.63,598.9c-1-4.64-5.69-.24-7.58-3.27,1.43-2.06,6.47-.12,5.71-4.71l2-.45c2.84,4.37,7.15.73,10.57,1.93-1.24,4.41-8.33-.27-8.66,5.56C624.43,599.23,623.62,599.24,622.63,598.9Z" transform="translate(0.47 -0.11)"/><path class="cls-1" d="M656.64,588.39c.75-4.33,6.9-.19,7.49-4.76l-.22.14,14.22.15c-2.34,4.31-9.58-.94-10.82,5.52-.27,1.25-1.08,1.28-2.07.93-2-4.57-5.92-1-8.71-2.17Z" transform="translate(0.47 -0.11)"/><path class="cls-2" d="M624.67,598c.33-5.83,7.42-1.15,8.66-5.56l-.22.13,10.9,0c.33.34.66.67,1,1Z" transform="translate(0.47 -0.11)"/><path class="cls-2" d="M667.31,589.44c1.24-6.46,8.48-1.21,10.82-5.52l-.23.11,8.74,0a9.4,9.4,0,0,0,1,.92Z" transform="translate(0.47 -0.11)"/><path class="cls-1" d="M543.55,606.43c1.15-1.54,2.69-1.67,4.4-1.19-.51,2,1.22,2.19,2.37,2.83a.66.66,0,0,1-.24,1c0,1.27,0,2.55,0,3.82-.21,1.29-1,1.29-2,1,.68-2.22-1.27-2.16-2.44-2.78a1,1,0,0,1,.23-1.19C546.15,608,544.79,607.26,543.55,606.43Z" transform="translate(0.47 -0.11)"/><path class="cls-1" d="M771.92,564.52c-2.8,4.55-7.38.79-10.82,2.32l.11.17c.56-2.07-1.21-2.24-2.39-2.9a3.85,3.85,0,0,1,4.61-1.33c2.05,4.11,5.62,1.65,8.55,2Z" transform="translate(0.47 -0.11)"/><path class="cls-1" d="M535,613.18a1.08,1.08,0,0,1,.19-1.23l1.11-2.61-.24.14,3.7.68a6.18,6.18,0,0,1,1.45,1.24l.37,3.56c-1.12,1.41-2.57,1.48-4.15,1C538.15,613.71,536.16,613.8,535,613.18Z" transform="translate(0.47 -0.11)"/><path class="cls-1" d="M761.1,566.84c-2.88,4.25-7.3.73-10.74,2.13l.19.18c0-1.14-.06-2.28-.08-3.42l2.28-.84c1.94,4.21,5.62,1.49,8.46,2.12Z" transform="translate(0.47 -0.11)"/><path class="cls-1" d="M559.62,609.68l.24-.14-3.57-.62a1.1,1.1,0,0,1,.22-1.15c0-1.24,0-2.48,0-3.73.32-1.22,1.14-1.28,2.14-.91-.45,2,1.21,2.2,2.36,2.84l-.24.88C560.37,607.8,560,608.74,559.62,609.68Z" transform="translate(0.47 -0.11)"/><path class="cls-2" d="M577.6,604.64l3.58.65c-3,3.51-6.9,2.87-10.77,2.47.33-1,.67-2.08,1-3.12Z" transform="translate(0.47 -0.11)"/><path class="cls-1" d="M720.3,574.61a7.74,7.74,0,0,1,7.76-.29c-2.61,1.65-5.18,1.1-7.75.12Z" transform="translate(0.47 -0.11)"/><path class="cls-2" d="M708.91,574.54c3.49-.76,7.06-4.23,10.43.26l-.72.57h-8.77A4.58,4.58,0,0,0,708.91,574.54Z" transform="translate(0.47 -0.11)"/><path class="cls-2" d="M556.49,604c0,1.25,0,2.49,0,3.73l-6.19.3c-1.15-.64-2.88-.79-2.37-2.83Z" transform="translate(0.47 -0.11)"/><path class="cls-1" d="M697.51,580.48a7.52,7.52,0,0,1-7.88.41c2.64-1.76,5.25-1.28,7.87-.23Z" transform="translate(0.47 -0.11)"/><path class="cls-2" d="M709,580.66c-3.33.8-6.91,4.27-9.69-.89h0l8.75,0A6.24,6.24,0,0,0,709,580.66Z" transform="translate(0.47 -0.11)"/><path class="cls-2" d="M539.76,610.16l-3.7-.68c1.43-3.63,5.2-1.54,7.49-3.05,1.24.83,2.6,1.58,2.31,3.43Z" transform="translate(0.47 -0.11)"/><path class="cls-2" d="M751.32,572.37c-3.28-.74-8.31,6.22-9.84-2.23l9.08,1.15A4.3,4.3,0,0,1,751.32,572.37Z" transform="translate(0.47 -0.11)"/><path class="cls-1" d="M740.13,572.16a8.34,8.34,0,0,1-7.44.3c2.64-1.93,5-1.11,7.44-.13Z" transform="translate(0.47 -0.11)"/><path class="cls-1" d="M750.56,571.29l-9.08-1.15.33.06,8.74-1.05-.19-.18C750.42,569.75,750.49,570.52,750.56,571.29Z" transform="translate(0.47 -0.11)"/><path class="cls-2" d="M559.62,609.68c.38-.94.75-1.88,1.13-2.83l6.19-.07,3.68.85C567.38,610.58,563.6,610.68,559.62,609.68Z" transform="translate(0.47 -0.11)"/><path class="cls-2" d="M580.88,605.38c3.16-3.14,7.18-2.12,11-2.24C588.74,606.59,584.87,606.27,580.88,605.38Z" transform="translate(0.47 -0.11)"/><path class="cls-1" d="M654.88,589a8,8,0,0,1-7.77.75c2.54-2.6,5.16-1.45,7.76-.57Z" transform="translate(0.47 -0.11)"/><path class="cls-2" d="M656.53,588.2c2.79,1.15,6.76-2.4,8.71,2.17C662.52,588.93,658,594.55,656.53,588.2Z" transform="translate(0.47 -0.11)"/><path class="cls-2" d="M750.55,569.15l-8.74,1.05c.68-5.75,6.15-2.25,8.66-4.47C750.49,566.87,750.52,568,750.55,569.15Z" transform="translate(0.47 -0.11)"/><path class="cls-2" d="M761.21,567c-2.84-.63-6.52,2.09-8.46-2.12l6.07-.78C760,564.77,761.77,564.94,761.21,567Z" transform="translate(0.47 -0.11)"/><path class="cls-1" d="M570.62,607.63l-3.68-.85a1,1,0,0,1,.24-1.11l1.08-2.72-.22.14,3.61.79-.23.76c-.34,1-.68,2.08-1,3.12Z" transform="translate(0.47 -0.11)"/><path class="cls-1" d="M782.41,562.58c-2.56,3.73-5.9,1.54-9,1.19l.36,0,8.75-1Z" transform="translate(0.47 -0.11)"/><path class="cls-2" d="M568.26,603l-1.08,2.72L561,606c-1.15-.64-2.81-.87-2.36-2.84Z" transform="translate(0.47 -0.11)"/><path class="cls-2" d="M772,564.76c-2.93-.33-6.5,2.13-8.55-2C766.16,564,770.31,559,772,564.76Z" transform="translate(0.47 -0.11)"/><path class="cls-2" d="M556.29,608.92l3.57.62c-2.28,4-6.62,1.88-9.76,3.33l0-3.82Z" transform="translate(0.47 -0.11)"/><path class="cls-2" d="M782.52,562.76l-8.75,1c.37-6.36,6.38-1.84,8.68-4.48C782.47,560.47,782.5,561.61,782.52,562.76Z" transform="translate(0.47 -0.11)"/><path class="cls-2" d="M600.28,596.59c-3.14,2.63-6.3,4.15-9.59.21Z" transform="translate(0.47 -0.11)"/><path class="cls-2" d="M588.49,597.67c-2.11,5.31-5.11,4.54-8.48,1.24Z" transform="translate(0.47 -0.11)"/><path class="cls-2" d="M536.3,609.34,535.19,612l-8.91-.43C530,608.78,533,608.12,536.3,609.34Z" transform="translate(0.47 -0.11)"/><path class="cls-2" d="M571.65,603.88l-3.61-.79c1.52-3.45,5.11-1.58,7.46-2.9,1.32.76,2.87,1.35,2.33,3.39Z" transform="translate(0.47 -0.11)"/><path class="cls-2" d="M591.54,603.26c3.15-3.2,7.18-2.12,11-2.24C599.4,604.46,595.53,604.13,591.54,603.26Z" transform="translate(0.47 -0.11)"/><path class="cls-2" d="M517.14,612.78c2.22-1.57,4.5-2.62,7.24-.95-1.23,2.91-3.88,1.78-5.88,2.32Z" transform="translate(0.47 -0.11)"/><path class="cls-2" d="M541.58,615l-.37-3.56,4.42-.35c1.17.62,3.12.56,2.44,2.78Z" transform="translate(0.47 -0.11)"/><path class="cls-2" d="M535,613.18c1.16.62,3.15.53,2.43,2.79-2.12-.34-5.08,1.57-6.17-.79C530.61,613.77,533.56,613.67,535,613.18Z" transform="translate(0.47 -0.11)"/><path class="cls-2" d="M518.5,614.15l-2.14,2.12-1.47-1.68,2.25-1.81Z" transform="translate(0.47 -0.11)"/><path class="cls-2" d="M612,385.8c-16.19,6.36-33.85,6.05-50.3,10.88-33.25,9.77-65.47.51-97.84-4.57-64.77-10.16-129.44-21-194.16-31.55-2-.32-4.4.25-5.29-2.44,23,.67,45.39,6.25,68,9.82,62.56,9.86,125,20.5,187.59,30.18,18.17,2.82,35.64-4.55,53.49-6.77C586.36,389.76,598.77,385,612,385.8Z" transform="translate(0.47 -0.11)"/><path class="cls-2" d="M660,377.29c-7.9,3.49-16.11,5.24-24.77,4.35A45.81,45.81,0,0,1,660,377.29Z" transform="translate(0.47 -0.11)"/><path class="cls-2" d="M635.42,381.54c-7.42,4-15.38,5.06-23.67,4.36C619.17,381.88,627.17,381,635.42,381.54Z" transform="translate(0.47 -0.11)"/><path class="cls-1" d="M397,326.76c-4.89,3-8.68,2.88-12.49.73-.22-.12.14-2.29.64-2.48C388.71,323.57,392.35,322.94,397,326.76Z" transform="translate(0.47 -0.11)"/><path class="cls-2" d="M583.17,352.05l-9.28.7-.35-2.34,9.34-.61Z" transform="translate(0.47 -0.11)"/><path class="cls-2" d="M490.67,306.4h9.59l0,1.53h-9.59Z" transform="translate(0.47 -0.11)"/><path class="cls-2" d="M446,317.29c-5.89,1.94-9.15,2.16-15.12.07C436.77,315.7,440,315.58,446,317.29Z" transform="translate(0.47 -0.11)"/><path class="cls-2" d="M580.39,374.94H569.45C574,371.63,577.29,373.13,580.39,374.94Z" transform="translate(0.47 -0.11)"/><path class="cls-2" d="M484.86,367.93c3.17-2.77,6.44-2.32,9.76,0Z" transform="translate(0.47 -0.11)"/><path class="cls-1" d="M395,362.9c3.67-4.12,7.47-3,12.41-1.73C403,366.8,399,364.43,395,362.9Z" transform="translate(0.47 -0.11)"/><path class="cls-2" d="M632.93,343.19c-5.67,1.88-8.8,2.15-14.34,0C624,341.36,627.18,341.27,632.93,343.19Z" transform="translate(0.47 -0.11)"/><path class="cls-2" d="M558.89,334.72c-3,2.65-6,2.78-11.89.55Z" transform="translate(0.47 -0.11)"/><path class="cls-2" d="M331.1,333.12H345C339.37,335.85,336.32,336.32,331.1,333.12Z" transform="translate(0.47 -0.11)"/><path class="cls-2" d="M417,339.13c-3,2.74-6,3.19-9.18.65Z" transform="translate(0.47 -0.11)"/><path class="cls-2" d="M511.05,323.67c-3.14,2.16-6.32,2.15-12.31.45C504.57,321.86,507.79,322.26,511.05,323.67Z" transform="translate(0.47 -0.11)"/><path class="cls-2" d="M364.78,348c3-.34,6-1.06,9.16.63-3,2.07-6,1.29-9,1A8.22,8.22,0,0,1,364.78,348Z" transform="translate(0.47 -0.11)"/><path class="cls-2" d="M264.61,358.22c-4.92.63-9.87,1.44-14.11-2.21C255.45,355.17,260.3,355,264.61,358.22Z" transform="translate(0.47 -0.11)"/><path class="cls-2" d="M601,325.73c4.47-1.9,7.36-2.07,10.5-.42C608.46,327.2,605.56,326.7,601,325.73Z" transform="translate(0.47 -0.11)"/><path class="cls-2" d="M468.39,331.88c-4.17,1.24-6.84,1.17-10.07-.1C462,330.14,464.91,329.89,468.39,331.88Z" transform="translate(0.47 -0.11)"/><path class="cls-2" d="M458.3,352.48c-3.09,2.42-6,1.6-9.68.71C452.09,350.88,455,351.41,458.3,352.48Z" transform="translate(0.47 -0.11)"/><path class="cls-2" d="M509.87,344.28c-2.62,1.68-5.27,1.83-8.63.64C504.36,342.43,507.18,343.8,509.87,344.28Z" transform="translate(0.47 -0.11)"/><path class="cls-2" d="M622.3,365.51c4.4-1,7-1.37,10.43.33C629.05,367.19,626.18,367.6,622.3,365.51Z" transform="translate(0.47 -0.11)"/><path class="cls-2" d="M520.63,382.74c3.14-2.17,6.08-1.42,9.61-.81C527,385,524,383.94,520.63,382.74Z" transform="translate(0.47 -0.11)"/><path class="cls-2" d="M733.83,346.72c-4.67,1-7.37,1.5-10.9-.36C726.73,345,729.67,344.55,733.83,346.72Z" transform="translate(0.47 -0.11)"/><path class="cls-2" d="M286.32,344.26c-4.17,1.71-7,1.9-10.15.46C279,342.62,281.79,343.22,286.32,344.26Z" transform="translate(0.47 -0.11)"/><path class="cls-2" d="M673.05,356.36h9.51C678.1,359.21,675.16,358.1,673.05,356.36Z" transform="translate(0.47 -0.11)"/><path class="cls-2" d="M528.51,359.08c4.41-.91,7-1.38,10.42.34C535.28,360.82,532.41,361.18,528.51,359.08Z" transform="translate(0.47 -0.11)"/><path class="cls-1" d="M709.85,575.36h8.77C715.69,578.47,712.77,578.61,709.85,575.36Z" transform="translate(0.47 -0.11)"/><path class="cls-1" d="M708,579.8l-8.75,0C702.13,576.65,705.05,576.52,708,579.8Z" transform="translate(0.47 -0.11)"/><path class="cls-1" d="M686.64,584.06l-8.74,0C680.82,580.88,683.74,580.68,686.64,584.06Z" transform="translate(0.47 -0.11)"/><path class="cls-1" d="M644,592.57l-10.9,0C636.76,589.86,640.39,588.31,644,592.57Z" transform="translate(0.47 -0.11)"/></svg>