<svg id="Layer_1" data-name="Layer 1" xmlns="http://www.w3.org/2000/svg" viewBox="0 0 999.63 997.3"><defs><style>.cls-1{fill:#d3d2d2;}.cls-1,.cls-2,.cls-3{stroke:#1d1d1b;}.cls-1,.cls-2,.cls-3,.cls-4,.cls-5,.cls-6{stroke-miterlimit:10;}.cls-2,.cls-3{fill:#fff;}.cls-2,.cls-5{stroke-width:0.5px;}.cls-4,.cls-5{fill:none;stroke:#d3d2d2;}.cls-6{fill:#2858a3;stroke:#2858a3;opacity:0.3;}.cls-7{fill:#c4c4c4;}</style></defs><rect class="cls-1" x="76.52" y="500.12" width="846.11" height="107.25" rx="3.89"/><line class="cls-2" x1="243.44" y1="497.64" x2="243.44" y2="607.33"/><line class="cls-2" x1="593.62" y1="497.64" x2="593.62" y2="607.33"/><line class="cls-2" x1="413.38" y1="497.64" x2="413.38" y2="607.33"/><line class="cls-2" x1="753.24" y1="497.64" x2="753.24" y2="607.33"/><path class="cls-3" d="M765.25,491.69c4.88-4.08,11.37-4.35,15.92-4l.51-5.2c7.75,14.63,33.35,21.67,52.17,19.26,14.37-1.84,34-10.37,40.53-27.6" transform="translate(-0.37 -2.22)"/><path class="cls-3" d="M765.25,491.69c-3.48,4-4.53,8.89-8,27.55-5.19,28.28-5.49,32-8.75,36.36-6.23,8.42-15.25,8.7-19.11,8.82-11.23.34-19.45-6.45-25.47-11-22.12-16.82-60-20.83-60.25-20.88-16.34-1.36-86.22,4.65-121.25,10.92-20.38,3.64-36.41,1.37-68.46-3.19-23.05-3.27-36.95-7.81-59-17.13-16-6.77-22.37-8.44-34.14-10.73-21.79-4.23-27.36,5.65-53.34,8S252.34,510.54,224,506c-5.25-.83-15-7-27.86-5.57-10.2,1.1-10.42,4.83-21.5,7.16-14.93,3.16-17-3.09-41.39-3.18-11.66,0-16.58,1.37-19.9-2.39-4.58-5.18-1.58-15.06.79-19.9" transform="translate(-0.37 -2.22)"/><path class="cls-4" d="M761,433.42c-12.6-14.62-6.15-31.15-13.54-43.48-20.89-34.84-130.54.56-129.75,19,.19,4.34,6.44,7.2,5.57,9.06l-.26.58c-10.27.09-61.1-16.08-62.62-16.86-35-18-92.32,2.83-104.28,7.17-53.6,19.44-63.54,40.07-100.31,42.19-14.77.85-19.35-4-36.61-2.79-24.78,1.72-42.94,12.83-68.84,16.92-12.58,2-12.92,1.69-35.18,2.58-15.52.62-19.71.22-24.68-1.59-8.52-3.1-12.08-7.68-18.3-6.37s-6.09,6.55-12.74,8.76c-7.75,2.57-11.05-3.5-20.7-3.19-10.32.34-20.27,7.73-24.68,16.72" transform="translate(-0.37 -2.22)"/><path class="cls-4" d="M874.38,474.17a34.71,34.71,0,0,0,1.8-16.54c-3.28-21.11-27.56-33.87-54.23-28.49-17,3.42-30.84,13.41-37.8,25.66l.74-8.7c-7.21-1.23-16.65-4.29-23.88-12.68" transform="translate(-0.37 -2.22)"/><line class="cls-5" x1="758.77" y1="465.7" x2="552.21" y2="465.7"/><polygon class="cls-6" points="760.43 570.09 484.32 538.76 484.32 395.96 760.43 362.46 760.43 570.09"/><path class="cls-7" d="M500.86,2.23C776,1.46,1000.38,223.75,1000,501.56c-.38,276.29-224.28,498.92-503,498C224.35,998.58-3,773.5.41,494,3.74,225.16,225.2.15,500.86,2.23ZM988.15,499.71C987.72,232.88,772.47,13,499.86,13.3,228.66,13.65,12.23,229.6,12,500.1c-.27,270.84,215.57,487.55,487.73,488C772.19,988.55,988.62,768.91,988.15,499.71Z" transform="translate(-0.37 -2.22)"/></svg>