<svg id="Layer_1" data-name="Layer 1" xmlns="http://www.w3.org/2000/svg" viewBox="0 0 999.63 997.3"><defs><style>.cls-1{fill:#c4c4c4;}.cls-2{fill:#121213;}.cls-3{fill:#cadcea;}</style></defs><path class="cls-1" d="M500.86,2.23C776,1.46,1000.38,223.75,1000,501.56c-.38,276.29-224.28,498.92-503,498C224.35,998.58-3,773.5.41,494,3.74,225.16,225.2.15,500.86,2.23ZM988.15,499.71C987.72,232.88,772.47,13,499.86,13.3,228.66,13.65,12.23,229.6,12,500.1c-.27,270.84,215.57,487.55,487.73,488C772.19,988.55,988.62,768.91,988.15,499.71Z" transform="translate(-0.37 -2.22)"/><path class="cls-2" d="M561.38,407.26c1.34,12.26-6.48,32.05,3,40.57,8.18,7.34,27.54,2.2,42,2.52,4.3.1,8.62.28,12.9,0,6.92-.52,10.81.78,10.74,9.37-.08,9.31-5.48,8.75-11.61,8.72-15-.07-30.13.42-45.16-.19-8.72-.36-13.35,1.73-11.9,11.37a28.71,28.71,0,0,1,0,8.07c-2.79,21,3.3,35.64,21,50.37,41.72,34.65,51.95,96.46,28.64,146-23.59,50.14-76.53,79.41-130.54,72.18-56.29-7.54-99.79-48.47-109.2-103.3C363,604.86,378,564.71,414.48,533c7.3-6.36,10.11-12.27,10.06-21.68-.34-71.67-.2-143.33-.18-215,0-35.84,16.44-52.82,51.85-52.81,16.08,0,32.27-1.75,48.26,1.28,22.16,4.19,35.93,19.85,36.8,42.43.51,13.45.67,27-.09,40.4-.55,9.49,1.58,13.52,12.1,12.76,13.91-1,28-.05,41.93-.34,5.93-.13,8.68,1.3,8.49,8-.18,6.34-1,10-8.67,9.75-14.51-.5-29,.21-43.55-.28-7.62-.25-10.59,2.1-10.24,10C561.77,379.88,561.38,392.29,561.38,407.26Zm-67.84,61.18c-14,0-28,.28-41.93-.12-6.92-.2-9.5,2.12-9.25,9.19.44,12.37-.64,24.83.32,37.15,1,13-3,21.39-13.86,29.68-49,37.29-56.69,109.44-17.68,154.87,41.84,48.73,113.64,54.48,157.64,12.62,47.55-45.25,51.32-119.57,1.85-159.53-25.33-20.46-29.66-41.08-27.49-68.46.13-1.6-.18-3.26.05-4.84,1.29-8.71-2.75-11.08-11-10.71C519.37,468.86,506.45,468.44,493.54,468.44Zm49.64-104.08c0-24.77.19-49.54-.07-74.3-.19-18.49-9-27.74-27.47-28.34-15.57-.51-31.19-.56-46.75.07-17.35.7-26.28,10.16-26.35,27.8-.22,50.09.12,100.18-.28,150.27-.07,8.57,2.47,10.85,10.82,10.69,26.33-.5,52.69-.62,79,.05,9.58.24,11.47-3.17,11.28-11.92C542.83,413.92,543.18,389.13,543.18,364.36Z" transform="translate(-0.37 -2.22)"/><path class="cls-3" d="M493.54,468.44c12.91,0,25.83.42,38.7-.15,8.2-.37,12.24,2,11,10.71-.23,1.58.08,3.24-.05,4.84-2.17,27.38,2.16,48,27.49,68.46,49.47,40,45.7,114.28-1.85,159.53-44,41.86-115.8,36.11-157.64-12.62-39-45.43-31.3-117.58,17.68-154.87,10.89-8.29,14.88-16.7,13.86-29.68-1-12.32.12-24.78-.32-37.15-.25-7.07,2.33-9.39,9.25-9.19C465.58,468.72,479.57,468.44,493.54,468.44Z" transform="translate(-0.37 -2.22)"/></svg>