<svg id="Layer_1" data-name="Layer 1" xmlns="http://www.w3.org/2000/svg" viewBox="0 0 999.63 997.3"><defs><style>.cls-1{fill:#d3d2d2;}.cls-1,.cls-2,.cls-3{stroke:#1d1d1b;}.cls-1,.cls-2,.cls-3,.cls-4,.cls-5,.cls-6{stroke-miterlimit:10;}.cls-2,.cls-3{fill:#fff;}.cls-2,.cls-5{stroke-width:0.5px;}.cls-4,.cls-5{fill:none;stroke:#d3d2d2;}.cls-6{fill:#2858a3;stroke:#2858a3;opacity:0.3;}.cls-7{fill:#c4c4c4;}</style></defs><rect class="cls-1" x="76.63" y="501.04" width="846" height="107.24" rx="3.89"/><line class="cls-2" x1="243.53" y1="498.56" x2="243.53" y2="608.24"/><line class="cls-2" x1="593.66" y1="498.56" x2="593.66" y2="608.24"/><line class="cls-2" x1="413.44" y1="498.56" x2="413.44" y2="608.24"/><line class="cls-2" x1="753.27" y1="498.56" x2="753.27" y2="608.24"/><path class="cls-3" d="M114.2,483.06c-2.38,4.84-5.38,14.72-.8,19.9,3.32,3.75,8.24,2.35,19.9,2.39,24.38.09,26.46,6.33,41.39,3.18,11.07-2.34,11.3-6.06,21.49-7.16,12.88-1.39,22.61,4.74,27.85,5.57,28.39,4.52,57.5,16.65,83.58,14.33s31.54-12.2,53.33-8c11.77,2.28,18.15,4,34.14,10.72,22,9.32,35.93,13.86,59,17.14,32.05,4.55,48.07,6.83,68.45,3.18,36.21-6.48,42.75-23.21,85.17-28.66,11.45-1.47,21.17-2.72,34.22-.79,16.41,2.42,40,10.14,62.08,22.29,6,3.3,14.25,8.21,25.48,7.95,3.85-.08,12.87-.28,19.1-6.36,3.26-3.19,3.56-5.84,8.75-26.27,3.43-13.48,4.48-17,8-19.9,4.88-4.08,11.37-4.35,15.92-4l.51-5.2c7.74,14.63,33.35,21.67,52.16,19.26,14.37-1.84,34-10.38,40.52-27.6" transform="translate(-0.37 -2.22)"/><path class="cls-4" d="M874.38,475.09a27,27,0,0,0,1.81-14.53c-3.29-18.55-27.56-29.76-54.22-25-17,3-30.84,11.78-37.81,22.55l.75-7.64c-7.21-1.09-16.66-3.77-23.88-11.14-12.6-12.86-6.15-27.38-13.53-38.21-20.9-30.62-130.53.49-129.74,16.71.18,3.81,6.43,6.33,5.57,8-2,3.76-34.89-10.07-37.41-11.14-13.92-5.89-23.8-11.08-25.47-11.94-35-18-92.31,2.83-104.27,7.17C402.59,429.28,392.65,449.9,355.89,452c-14.76.85-19.35-4-36.61-2.79-24.77,1.72-42.93,12.84-68.82,16.92-12.58,2-12.93,1.7-35.18,2.58-15.52.62-19.71.22-24.68-1.59-8.52-3.09-12.08-7.67-18.3-6.36s-6.08,6.54-12.74,8.75c-7.74,2.57-11.05-3.49-20.69-3.18-10.32.33-20.27,7.72-24.67,16.71" transform="translate(-0.37 -2.22)"/><line class="cls-5" x1="758.79" y1="466.62" x2="552.26" y2="466.62"/><rect class="cls-6" x="468.15" y="386.33" width="295.04" height="159.06"/><path class="cls-7" d="M500.86,2.23C776,1.46,1000.38,223.75,1000,501.56c-.38,276.29-224.28,498.92-503,498C224.35,998.58-3,773.5.41,494,3.74,225.16,225.2.15,500.86,2.23ZM988.15,499.71C987.72,232.88,772.47,13,499.86,13.3,228.66,13.65,12.23,229.6,12,500.1c-.27,270.84,215.57,487.55,487.73,488C772.19,988.55,988.62,768.91,988.15,499.71Z" transform="translate(-0.37 -2.22)"/></svg>