<svg id="Layer_1" data-name="Layer 1" xmlns="http://www.w3.org/2000/svg" viewBox="0 0 999.63 997.3"><defs><style>.cls-1{fill:#0c0a0b;}.cls-2{fill:#f19bb7;}.cls-3{fill:#c4c4c4;}</style></defs><path class="cls-1" d="M596.73,469.27c-35.47,0-35,0-35.69,35.32-.23,11.74,2.94,19,12.87,26.36,44.9,33.16,61.4,93.06,41.35,144.94-20.18,52.21-73.75,86.6-127.16,81.63-60.26-5.6-107.28-45.38-117.73-100.6-9.34-49.37,5.3-91,43.59-123.36,8-6.72,10.21-13.39,10.17-23.16-.33-72.81-.25-145.61-.15-218.42,0-27.54,14.66-44.7,41.87-46.9a311.66,311.66,0,0,1,54.39.22c26.31,2.49,40.6,19.63,41,46.31.21,13.38.36,26.78-.09,40.15-.23,6.92,2,9.36,9,9.14,14.4-.46,28.83-.1,43.26-.16,5.4,0,10.16-.87,10.47,7.65.34,9.45-4.88,8.68-11,8.61-13.89-.15-27.79.34-41.65-.2-7.65-.29-10.23,2.1-10.1,9.92.41,25.69.48,51.4,0,77.08-.17,8.33,3.24,9.6,10.32,9.43,16.55-.41,33.11-.14,49.67-.12,5.22,0,10.51-1.28,10.79,7.44.29,9.25-4.87,8.91-11.11,8.76C612.76,469.12,604.75,469.27,596.73,469.27ZM543.4,404.86c0-37.47.12-74.95,0-112.43-.09-20-9.15-29.22-29.28-29.78-12.81-.35-25.64-.16-38.46-.06-26.14.19-34.44,8.51-34.46,34.57,0,68.53-.47,137.07.28,205.6.22,20.06.2,38.38-21.29,48.26-2.73,1.26-4.72,4.29-6.85,6.68-42.85,48.06-36.06,119.09,15.29,160.42,47,37.81,119.5,26.5,157.34-24.55,35.92-48.46,22.81-119.25-29.28-153.37-10.43-6.83-13.74-14.14-13.51-26.12C543.86,477.69,543.41,441.27,543.4,404.86Z" transform="translate(-0.37 -2.22)"/><path class="cls-2" d="M543.4,404.86c0,36.41.46,72.83-.26,109.22-.23,12,3.08,19.29,13.51,26.12,52.09,34.12,65.2,104.91,29.28,153.37-37.84,51-110.34,62.36-157.34,24.55-51.35-41.33-58.14-112.36-15.29-160.42,2.13-2.39,4.12-5.42,6.85-6.68,21.49-9.88,21.51-28.2,21.29-48.26-.75-68.53-.31-137.07-.28-205.6,0-26.06,8.32-34.38,34.46-34.57,12.82-.1,25.65-.29,38.46.06,20.13.56,29.19,9.74,29.28,29.78C543.52,329.91,543.4,367.39,543.4,404.86Z" transform="translate(-0.37 -2.22)"/><path class="cls-3" d="M500.86,2.23C776,1.46,1000.38,223.75,1000,501.56c-.38,276.29-224.28,498.92-503,498C224.35,998.58-3,773.5.41,494,3.74,225.16,225.2.15,500.86,2.23ZM988.15,499.71C987.72,232.88,772.47,13,499.86,13.3,228.66,13.65,12.23,229.6,12,500.1c-.27,270.84,215.57,487.55,487.73,488C772.19,988.55,988.62,768.91,988.15,499.71Z" transform="translate(-0.37 -2.22)"/></svg>