<svg id="Layer_1" data-name="Layer 1" xmlns="http://www.w3.org/2000/svg" viewBox="0 0 999.63 997.3"><defs><style>.cls-1{fill:#c4c4c4;}.cls-2{fill:#3f3f3f;}</style></defs><path class="cls-1" d="M500.86,2.23C776,1.46,1000.38,223.75,1000,501.56c-.38,276.29-224.28,498.92-503,498C224.35,998.58-3,773.5.41,494,3.74,225.16,225.2.15,500.86,2.23ZM988.15,499.71C987.72,232.88,772.47,13,499.86,13.3,228.66,13.65,12.23,229.6,12,500.1c-.27,270.84,215.57,487.55,487.73,488C772.19,988.55,988.62,768.91,988.15,499.71Z" transform="translate(-0.37 -2.22)"/><path class="cls-2" d="M734.87,661.39c-26.3,7.11-51.13,14.08-76.12,20.38-5.77,1.46-7.33,3.93-7,9.37.41,6.35-.29,12.77.2,19.11.52,6.69-1.2,10-8.62,11.41C630.87,724,630.08,724,630.08,711c0-29.75-.3-59.5.2-89.24.13-7.57-2.21-10.72-9.48-12-7.93-1.43-15.64-4-24.18-6.32,0,12.74-.26,24.41.12,36.05.17,5.07-1.55,9.58-6.28,8.49s-13.18.41-13.24-8.71c-.08-12.74,0-25.48,0-39.68l-30.79,8.28c-38.32,10.29-76.6,20.75-115,30.68-7.1,1.84-9.43,4.62-9.35,12.14.44,39.66.13,79.33.29,119,0,5.39-.34,11.13-7,9.63-4.9-1.11-13.62.52-12.75-10s-.27-21.26.37-31.85c.39-6.4-2.26-8.39-7.88-9.85-40.79-10.67-81.56-21.43-122.19-32.7-7.68-2.13-8.85-.06-8.48,6.85.48,9.18-.14,18.42.22,27.61.19,4.66-1.41,8.84-5.78,7.79-4.73-1.14-12.12,1.14-13.66-6.78a27.52,27.52,0,0,1-.08-5.3c0-89.59.11-179.19-.21-268.78,0-7.67,2.77-10.09,9.51-11.88Q416.24,401.41,577.91,358a28,28,0,0,1,15.3-.06c51.53,14,103.06,28,154.73,41.43,5.59,1.46,6.83,3.63,6.45,8.51-.24,3.17.43,6.46-.14,9.54-2.51,13.68,10,26.22,5,39-10.53,26.94-3.7,54.36-4.53,81.43-1.47,47.77-.48,95.6-.32,143.41,0,5.09-.35,10.41-6.39,9.25-5.2-1-13.85.24-13.23-9.86C735.17,674.6,734.87,668.58,734.87,661.39ZM430.39,520.81c2.78-2.51,6.39,2,9.24-1-7-3.63-9.81-4.39-17.49-4.83-3.71-2.46-4.43-4.91,0-7.34,12.76,3.48,24.95,10.92,39.9,6.35l-6.2-3.7c5.58-2.36,10.62,3.31,17.25.88-8.53-4.68-17.4-5.39-25.63-8-4.32-1.37-8.78-3.13-12.75.93H424.66c8.21-3.75,16.66-6,25-8.54,4-1.22,3.24,3.15,3.66,3.24,13.35,2.65,25.83,11.43,40.62,6.78-3.45-4.35-9.31-2.09-12.48-5.93,7.95-1,15,5.16,23.31,2.28-11.41-4-22.58-8.82-36.78-9.16l6.11,5.06c-6.11.61-11.47-3.44-17.76-2.95,8.3-3.08,16.65-5.51,25.06-7.73a5.26,5.26,0,0,1,4.65.73c12.19,7.85,25.46,11.4,41.59,9.38l-5.77-4c5-1.17,9.88,2.85,17-.12a171.69,171.69,0,0,0-33.46-9.08c-2.16-.35-4.18.48-4.79,3.05H488.53c10.4-3.85,20.2-9.23,31.51-8.8-.3,1.28-.6,2.55-.89,3.82,11.05,2.11,21.4,7.46,32.93,7.25,2.89-.05,6.67.27,6-4.67,3.8-.47,7.82,2.74,13.07-1.25l-36.59-9.29c5.27-3.48,11-5.22,17.34-4.37a20.62,20.62,0,0,0-.37,3c12.4,3.36,24.32,9.75,39.54,7.09-5.79-5.49-12.93-3.37-17.06-7.87,9.8-.44,18.69,7.14,31.79,3.08l-39.29-9.38c10.07-5.41,21-7.6,32.24-8.73-.06,1.54-.13,3.08-.2,4.62-4.84.53-10.09-2.11-16.34,2.73,11.49,2.84,21.41,5.66,31.49,7.56,2.66.5,8.39,2.91,8.17-4.11,2.84-.18,5.92,1,10.31-1.9-12.06-4.25-22.55-7.52-33.64-8.72,7.52-5.54,16.83-5.87,25.35-8.25,6.41-1.78,8.31-4.36,5.71-10.7-51.88,13.93-103.71,27.67-155.43,41.85-17.51,4.8-35.71,7.33-52.26,15.4-2.84,1.21-5.7.85-8.57.1-4.74-3.72-6.51-2.77-6.48,3.43q.46,133.15.67,266.3c0,4.08-.19,8.08,5.62,8,5.64-1.75,3-6.46,3-9.71.21-38.18.12-76.36.19-114.54,0-4.18-.88-8.51,1.35-12.48,51.59-13.65,103.16-27.4,154.81-40.82,6.68-1.74,6.49-6.32,5.26-10.54-1.58-5.38-5.73-1.73-8.7-.94Q518.48,597.7,467.87,611.3C454.58,614.86,441.3,618.49,428,622c-2.54.67-6.34,3-7.37-.46-1.33-4.52,3.71-3.88,6.36-5a17.37,17.37,0,0,1,2.08-.39c46.67-12.62,93.31-25.4,140.05-37.73,7-1.84,9.78-4.56,9.5-12.11-.6-16.62-.43-33.28,0-49.92.17-7.41-1.52-8.81-9.07-6.73-50.35,13.87-100.86,27.16-151.32,40.64-.83-1-2.57-2.33-2.34-2.87,1.26-3.05,4.14-1.41,6.38-1.71q50-13,100-26.11c25.8-6.78,51.57-13.68,77.35-20.53-4.61,3.35-4,7.82-4,12.1,0,11.31-.42,22.64.13,33.92.53,10.84-4.54,24.71,2.4,31.68,6.65,6.68,20.23,6.5,30.77,9.3.32.09.7-.09,1.48-.22V494.19c-6.82,0-12.45,4.13-19,3.37l.15.24c.33-4.14,4.19-2.82,6.24-3.47,14.25-4.52,14.29-4.36,11.89-19.65-48.37,13.06-96.75,25.92-145,39.23-20.91,5.77-42.42,9.54-62.56,18-3.6,1.4-5.88-1-8.29-2.92l.51-2.84c2.34-1.88,5.18-1.55,7.89-1.77C425.21,523.79,428.61,524.15,430.39,520.81ZM667,444.48c-5.31,3.2-14.33-6.06-15.12.41s10.5,4.74,16.09,7.52a28.5,28.5,0,0,0,8.07,2.18c4.12.66,8.42,1.48,11.51-2.69-6.64-3.46-14.85-2.44-20.84-7.55,11.68.51,22.24,8.08,34.67,4.48l-49.61-13.1C655.25,442.72,662.35,440.85,667,444.48ZM588.44,394c2.62-1.14,5.29-1.73,8.1-.65,44.26,14.44,89.72,24.51,134.49,37.1,3.91,1.1,4.63-.47,5.4-3.87,2.7-11.88-4.82-15.19-14.77-16.85,4-2.87,6.77-.29,9.73.24,2,.36,4.39,1,5-2.09a4.41,4.41,0,0,0-2.69-5.19,49.86,49.86,0,0,0-7.08-2.13c-22.87-6-45.72-12.1-68.65-17.91-21.81-5.53-43.14-13-65.49-16.41l-4.41-.51a3.53,3.53,0,0,0-.67-.81.7.7,0,0,0-.63.24c-3.11,10.59-7.61,20.89-5.58,32.46.59,3.35.38,6.84,4.89,6.26s2.09-4.26,2.3-6.71C588.41,396.11,588.4,395.05,588.44,394ZM426.13,484.77h11.44A374.37,374.37,0,0,0,378,467.33c.62,6.15,6.71,3.1,7.8,7-9.2-.62-17.66-4.31-26.53-6.34-4.46-1-9-2.52-14.07,2.08,24.07,6.49,46.91,12.82,69.86,18.7C419,489.75,423.68,489.47,426.13,484.77ZM560.39,434c-2.72-.48-5.45-.94-8.17-1.45-14.33-2.72-27.82-9.19-42.68-9.57,8-6.92,15.79,3.3,23.8.13-.07-2.82-6-2.1-3.93-5.86,2.34-4.24,6.85-2.45,10.5-2.95-2.3,2.31-3.19,4.18,1.38,4.29l62.33,16.76c4.83,1.3,9.75,2.24,14.57.37,4.53-1.75-1.62-2.55-.55-4.12,4.2-1.68,8.68,2.38,13.93-1.12-19.79-4.57-38.05-11.31-57.36-14.35-.36,3.54,4.38,1.91,3.19,5.14-7.36-.55-14.22-2.8-23.95-6.6H566.4c-5.3-4.56-7.57-7.57,1.18-9.06,3.37-.57,8.34-.17,10.73-7.27l-246.5,66.38.48,3.66C346,464.52,359.64,463,375.61,470c-3.88-5.38-9.48-4.59-8.35-8.58,1-3.36,4.71-3.35,7.91-2.26,1.06.84,2,2.13,3.18,2.46,22.81,6.29,45.64,12.54,68.53,18.58,3.76,1,7.68.4,10.59-2.58-1.05-1.94-4.41-.55-4.72-3.52,5.64-.67,10.91,4.4,18.88.42-12.21-3.34-22.59-6.23-33-9-8.15-2.18-16.32-4.31-24.53-6.26-1.35-.32-3.9-.89-3.74,1.79.06.91,2.09,1.69,3.22,2.53-9.23.24-17.65-2.71-25.86-6.5,5.69-2,10.7,3.23,17.27,1.42-9.47-6.26-3.82-7.47,2.21-9.81,8.55-3.32,16.5-.87,24.66.81,1.66,1.11,3.32,1.84,4.95-.05-1-.68-2-1.37-3-2.06-1.19-1.37-2.15-3.95-.75-4.43,7.37-2.58,14.55-8.11,22.93-2.84-4.59,1.17-10.13-1.21-14.15,3.95,23.28,6.27,46.29,12.4,69.25,18.71,4.56,1.25,8.1-.36,12.05-2.46-1.73-1.35-4-1-4.39-3.2,5.15-.95,9.9,3.78,15.5,1.19-.8-1-1.29-2.31-2.08-2.53-16.62-4.57-33.23-9.17-49.95-13.35-3-.75-7.1-2.13-9.27,2.27-6.38.66-12.25-.5-17.23-4.82l11.08,1.87c1.36.53,3.12.74,3.27-.93.2-2.24-1.74-2.5-3.59-2.27-1.92-6-1.92-6,8.73-7.05-2.18,5,2.28,4.73,4.69,5.39,20.12,5.47,40.35,10.56,60.42,16.21,5.43,1.53,10.22,1.66,15-1.13-3.15-3.73-9-1.6-12.11-5.47,7.54-.92,14.3,4.79,22.18,1.95-19-5.55-37.44-12.88-57.76-13.5l6,3.1c-9.22.26-17.72-2.36-25.84-6.49l12.59.68c-5.27-6.69-5.11-7.39,2.28-9a43.48,43.48,0,0,1,7.14-.45c-3.08,2.63-3.94,3.81,1.33,5.12C532.62,433.24,554,439,575.36,445c3.8,1.07,6.91.24,10.24-.67,4.4-1.2-1.39-2.9.14-4.3,3.75-1.28,7.72,2.33,13.38-.88-20.57-4.7-38.7-11.79-58.06-13.5C546.91,430.23,555.05,428.45,560.39,434ZM740.71,656.6c1.92-2.1,7.54-1.65,5.7-6.05-1.52-3.63-5.09-.45-7.46.17q-40.89,10.59-81.67,21.67c-2.36.64-5.89.58-6.17,5.19,8,.58,14.9-3.12,22.2-4.73,22.67-5,44.41-13.91,67.68-16.5-2.89,7.47-1.37,15.25-1.61,22.9-.1,3.33,1.66,5.48,5.08,5.35s3.25-3.11,3.28-5.53c.07-5.28-.25-10.58.08-15.84C748.17,657.81,745.08,656.67,740.71,656.6Zm-1.48-157.09c-.1,11.26-.12,22.53-.35,33.79-.07,3.27.56,4.94,4.37,5.29,5.21.47,3.66-3.17,3.71-5.44.19-8.81-.42-17.65.24-26.41.51-7-3.23-7.32-8.22-7,.14-2.61,2.36-2,3.86-2.48,2.2-.67,4.27-1.94,3.6-4.34-.78-2.8-3.53-1.79-5.39-1.3-28.66,7.65-57.3,15.42-85.95,23.11-2.2.59-4.49,1.59-4,4,.75,3.72,3.83,2,6,1.54,8.22-1.92,16.08-5.34,24.65-5.84,0,3.4-2.89,2.27-4.55,2.78-28.24,8.75-28,8.72-26.78,38.1.29,6.85,2.78,7.46,8.32,5.92,17.66-4.93,35.36-9.71,53.08-14.46,24.66-6.63,24.09-6.61,24.88-32,.33-10.61-2.5-14-12.56-10.63C728.21,499.56,733.63,499.26,739.23,499.51ZM492.89,467.1c2.69-.64,5.74,2.1,8.81-1.58-19.93-5.12-39-11.69-60.7-15.28,6.13,5.9,13.75,3.75,19,8.86-17.56-1-32.86-11.94-50.47-7.32,23.55,7.36,47.25,13.87,71.07,19.94,4.06,1,8.3-.68,11.52-3.83C492.38,467.62,492.64,467.36,492.89,467.1ZM313.45,489.2c-10.66,1.44-20.3-7.94-31.45-3.52.59,3.57,3.13,2.95,5,3.46,34,9.15,67.85,18.46,101.88,27.28,4.83,1.25,12.69,6.47,14.52,1.36,2.16-6-8.73-2.71-11.35-7.51,3.58-.55,7.24,1.92,11,0-.61-.92-.88-1.85-1.37-2q-42-11.58-84.15-23C314.6,484.52,312.73,485.69,313.45,489.2ZM587.74,641.55c6.28-13.35,4.71-26.83.67-40.35.13-29.62.3-59.24.31-88.86,0-2.35,1.59-6.21-3-6.4s-4.47,3.41-4.46,6.63q.33,61.33.63,122.67C581.89,639.32,582.66,642.34,587.74,641.55ZM390.36,498.76a3.74,3.74,0,0,0-4.47-.4c-.09,0-.14.44-.08.48,1.57,1.05,3.06.51,4.53-.26l1.71.9c1.4,1.82,2.86,3.31,4.94.7l-5-.64c.87-4.34,3.84-1.48,5.8-1.52,2.15,0,4.95,2.88,6.14-.9,1-3.06-.33-5.47-4-6-1.72-.26-3.33-1.15-5-1.61Q332,472.73,269.18,456.11c-2.93-.77-7.34-4.21-9.11.4-2.1,5.51,3.44,5.71,6.95,6.87,11.86,3.92,24.67,4.75,35.87,10.86-12.55.65-24.28,4.31-35.69,9.87,13.7-1.67,27.28-3.59,41.12.77-6.23-1.94-6.17-6.3-5.67-10.88,1.76.05,3.6-.24,5.26.2q39.38,10.43,78.72,21C388.48,495.73,391.2,495.4,390.36,498.76ZM727.19,607.94c4-3.15,9.12-3.17,13.7-4.69,2.31-.77,6.74-.79,5.68-4.79-1.22-4.65-5-1.22-7-.69q-41,10.56-81.83,21.81c-2.52.69-7.72.53-6.25,5.21,1.31,4.17,4.93.76,7.2.24,11.63-2.72,23.16-5.85,36.58-9.32-3.82,4.75-8.67,3-10.83,7.3,14.21,3.72,28.44,6.62,42.07,11.28,10.29,3.52,10.45-1.25,10.11-8.77-.2-4.42-2.19-6-6.25-7-8.19-2-16.17-5-24.93-4.64,7.08-3.2,14.14-6.07,22-6.1l-3.65,3.45c2.09.82,4.13,1.82,6.28,2.43,2.52.71,5.85,2.52,6.7-1.8s-2.37-4.21-5.37-4C730,608,728.59,607.94,727.19,607.94ZM256.1,504.16l4.3-.57c1.8,3.53,7.53.32,8.65,5-7.44-1.2-5.64,4.21-5.64,8.06-.05,44.63.17,89.26-.2,133.89-.08,9.05,2.76,9.54,10.5,7.39q60.71-16.87,121.7-32.74c6.55-1.72,9.22-4.28,9-11.38-.51-18.4-1-36.88.14-55.23.74-11.67-4.08-15.82-14.43-16.46-.19-1.16-.37-2.33-.55-3.5,14.64,4.41,16.41,3.26,14.77-8.2-.89-6.23-5.86-5.66-9.39-6.64-28.86-8-57.72-16-86.77-23.19-16-4-31.36-10.36-48-11.47L256,486.83c-.53-11.83,3.88-24.44-4.38-35.07a7.88,7.88,0,0,0-1.81,5.44q0,132.3,0,264.6c0,1.06,0,2.13,0,3.19,0,3,.24,6.16,4.19,5.86,3.76-.28,2.42-3.7,2.41-5.82-.06-19.12-.27-38.24-.43-57.36,6.28-2.13,4.08-7.59,4.09-11.66.19-46.31.11-92.62.17-138.93,0-4.33.21-8.55-4.17-11.16A12.9,12.9,0,0,0,256.1,504.16Zm346.75-93.74c-10.1.78-19.55-8-30.18-2.93.51,2.63,2.06,2.57,3.32,2.91q66,17.7,132.08,35.43A13.45,13.45,0,0,0,721,443.18l-29.49-8.24c3.59-1.89,5.86-1,8.17-.34,8.5,2.37,17,4.76,25.54,7,3.78,1,9.11,2.15,10.25-2.21,1.27-4.87-4.85-4-7.64-4.83-15.28-4.46-30.72-8.34-46.1-12.44-27.68-7.38-55.35-14.84-83.08-22-2-.51-5.5-3.74-6.75,1.26-.93,3.77,1.88,4.42,4.5,5.81,2.09,1.11,6-.62,6.3,3.51ZM391.58,646.72c1.4-1.85,3.45-2.39,5.59-2.61,7.54-.77,8.24-6.16,6.78-11.56-1.67-6.18-6.19-2.14-9.38-1.31Q353.7,642,312.88,653c-15.71,4.22-31.39,8.6-47.29,13,16.26,9.57,31.83,5.28,47.7,1,26.11-7.08,51.88-15.46,78.56-20.36-13,7-27.58,8.57-41.43,12.65-17.77,5.24-35.73,9.84-56.53,15.51,36.43,9.7,69.76,18.3,102.89,27.61,7.4,2.08,7.61-.85,7.53-6.34-.16-12-.83-24.08.19-36C405.39,649.46,403.07,644.16,391.58,646.72ZM555.94,380.56l.2.21c6.26-4.28,13.81-4.61,20.8-6.56,5.86-1.64,8.66-4,5.56-10.41L268.06,448.34c9.25,6.53,17.48,4.54,25.8,2.14,5.71-1.65,11.24-4.21,17.41-3.91l-.15-.24c-5,6.4-14,3.22-20.84,9.44,12.9,2.84,23.63,8.29,37.15,4.54,61.86-17.19,124-33.47,186-50.12,19.76-5.31,39.42-11,59.25-16,8.87-2.24,5.76-8.89,5.35-13.62-.65-7.51-5.85-1.61-8.78-1.62C564.83,378.91,560.72,382.43,555.94,380.56ZM736.39,573.94c0-4.6-.1-9.2,0-13.8.14-4.44-1.73-5.54-5.88-4.39-24.83,6.82-49.63,13.72-74.56,20.13-5.35,1.38-5.54,4.54-5.41,8.57.11,3.77-.76,7.65,4.86,9,20.62,4.85,40.2,14.07,62.66,4.87C735.7,591.08,736.42,592.81,736.39,573.94ZM647.85,436.72c-9.55-.43-9.29,5.17-9.28,11.21q.13,129.6.06,259.19c0,1.77,0,3.55,0,5.31.09,2.09-.11,4.53,3.17,4.16,2.11-.24,4.49-.48,4.92-3.08a48,48,0,0,0,.35-7.4c.26-39.29.63-78.58.72-117.87C648,538,647.85,487.74,647.85,436.72Zm2.7,211.79c0,20.1,0,20.1,19.75,14.92.34-.09.71-.09,1.05-.18,19.4-5.17,38.83-10.25,58.19-15.61,2.42-.67,6-.53,6.62-4.25a4.1,4.1,0,0,0-3.18-4.82c-19.05-5.11-37.9-11.82-57.3-14.49C657.68,621.6,650.55,630.32,650.55,648.51ZM259.55,679c-.21,4.28-.79,7.51,5.4,9.1,42.88,11,85.56,22.75,128.39,33.91,3.15.81,8.62,5.73,10.42-1.09,1.46-5.49,2.16-11.17-6.87-13.48-43.4-11.12-86.6-23-129.82-34.81C260.57,670.82,258.43,672.76,259.55,679Zm391-181.48c-.06,13.29-.06,13.3,11.8,10.09,20-5.44,39.86-11.82,60.15-16,11.94-2.45,15.46-7.85,14.22-19.15-.61-5.66-1.33-7.13-7.43-5.41-23,6.5-46.14,12.52-69.35,18.27C652.5,487.14,648.73,490.52,650.55,497.49Zm.19-21.08c-1.42,8.16,1.68,8.73,8.8,6.69,25.44-7.27,51.1-13.78,76.66-20.66,5.07-1.36,10.35-2.08,15-4.93,5.74-3.54,3.33-9.18,2.54-13.32s-5.26-1.41-8-.68c-29,7.73-58,15.66-87,23.32C653.37,468.24,649.09,469.79,650.74,476.41ZM635.59,439.2c-4.76,13.87-2.62,257.73,0,270.93Zm-5,160.63c1.49-5.93-1.1-8.79-7.1-10a148,148,0,0,1-22.53-6c-8-3-10-.46-9.49,7.28.26,4.08,1,6.22,5.46,7.21,9,2,17.82,4.61,26.63,7.26C629,607.24,631.88,606.32,630.61,599.83Zm116-53.09c-.54-4.07-3.59-2.73-5.66-2.19-28.66,7.63-57.27,15.41-85.92,23.05-2.81.75-5.06,2.07-3.89,4.92,1,2.32,3.6,1.08,5.64.54q42.42-11.38,84.87-22.68C743.81,549.81,745.64,548.91,746.64,546.74Zm.4,78.34c0-4.59.16-9.19-.07-13.77-.12-2.39,1.46-6.24-3.33-6-3.18.17-4.89,1.73-4.79,5.43.26,9.53.12,19.07.15,28.61,0,2.4-.52,4.88,3.47,4.89s4.58-2.27,4.56-5.4C747,634.27,747,629.68,747,625.08Zm-8.11-53.35c0,4.95,0,9.91,0,14.86,0,2.45-.25,4.74,3.64,4.68,3.38-.06,4.41-1.47,4.41-4.38,0-9.91,0-19.81,0-29.72,0-2.17-.27-4.44-3.19-4.48-2.73,0-4.85.89-4.84,4.18Q739,564.31,738.93,571.73Zm-53.68,34.88c-10.79-2.89-18.8-5.16-26.89-7.12-2.4-.58-6-3.63-7.23.19s-.84,8.41,0,12.42c.79,3.75,4.66,2.54,7.11,1.95C666.37,612.07,674.39,609.65,685.25,606.61ZM739,439.47c3.93-.42,7.8-.48,7.82-4.65,0-8.79-.52-17.58-1-26.35-.14-2.58-2.54-3.52-4.58-3.47-3.25.09-2.14,3-2.16,4.76C738.89,419.6,739,429.44,739,439.47ZM747,475a29.26,29.26,0,0,0,0-4.19c-.4-2.76,1.51-7-3.49-7.21-5.55-.25-4.45,4.16-4.56,7.46-.11,3.49-.12,7,0,10.47.09,2.19-.65,4.41,3.49,4.59,4.44.19,4.53-1.85,4.56-4.84C747,479.22,747,477.12,747,475Zm-463.51-4.34c-5-1.46-9.52-2.76-14-4.09-2-.58-4.49-1.66-5.42.79a12.5,12.5,0,0,0-.18,7.15c.72,2.76,3.52,2,5.27,1.34C273.67,474.1,278.87,474.38,283.53,470.69Zm330-16.5c7.17,2.91,11.44,5.33,16.57,3.93.38-.11.71-3.19.11-3.66C625.91,451.19,621.15,452.41,613.51,454.19Zm37-.09c8.43,6.14,8.7,6.19,18.53,3.5C662.3,456.33,657.22,453.15,650.49,454.1Z" transform="translate(-0.37 -2.22)"/><path class="cls-2" d="M399.94,380.82c-26.34-.14-47-8.29-68.24-13.49-20.6-5-41-10.87-61.49-16.4-7.53-2-15.07-4.18-21.3-9.13-11-8.73-9.85-19.42,2.63-25.8,18.16-9.3,38.3-12.35,57.67-17.61,80.87-22,161.89-43.36,242.88-64.86a95.14,95.14,0,0,1,49.29,0q51.81,13.62,103.5,27.69a88.76,88.76,0,0,1,17.7,6.9c10,5.25,11.2,15.7,3.18,23.53-5.81,5.67-13.22,8.18-20.73,10.2q-141.9,38.09-283.86,75.85C413,379.85,404.4,380.19,399.94,380.82Zm6.14-5.53c4.86-.86,9.81-1.37,14.56-2.64q141-37.5,281.92-75.2c7.53-2,14.85-4.74,20.84-10.07,3-2.68,3.85-5.87,2-9.53-1.93-3.82-4.83-2.81-8.15-1.9-16.69,4.61-33.46,8.93-50.18,13.4q-131.07,35.06-262.16,70c-6.76,1.79-8.21,5.11-7.54,11.21C398.07,376.83,402.27,375.2,406.08,375.29ZM455.3,264.48c1.3,3.3,3.61,3.12,5.58,3.65,37.51,10,75.52,18.42,112.35,30.44,28.69,9.37,51.35-7,76.92-11.26-44.94-13.44-89.81-25.46-134.69-37.41a10.5,10.5,0,0,0-5.17-.31C492,254.44,473.77,259.45,455.3,264.48Zm62.1,59.36,0-2.19q-66.84-17.94-133.69-35.82a15,15,0,0,0-7.31-.35c-18.65,4.86-37.23,10-56.91,15.3a41.55,41.55,0,0,0,4.95,2.18q64.8,17.44,129.64,34.75a17.63,17.63,0,0,0,8.4.41C480.82,333.53,499.1,328.64,517.4,323.84Zm69.33-18.62c-3.7-1.42-5.61-2.36-7.62-2.9-32-8.55-64.47-15.64-95.87-26-26.46-8.73-51.57-9-77.13,1.14-5.84,2.31-12.79,1.79-18.49,6.83,45.13,12,89.4,23.77,133.64,35.65a18.55,18.55,0,0,0,10.34.13C549.26,315.18,567,310.51,586.73,305.22Zm127.8-34.29c-4.59-3.73-8.37-4.44-12.09-5.44-31-8.28-62.32-15.82-93-25.19-31-9.45-59.91-2.72-90.53,7.77,46.73,12.51,92,24.66,137.2,36.63a17.29,17.29,0,0,0,8.42-.19C680.75,280.25,696.94,275.73,714.53,270.93ZM259.74,319.12a19.46,19.46,0,0,0,3.52,1.73Q326.13,337.73,389,354.42c3.34.88,7.22,1.36,10.49.56,17-4.14,33.8-8.75,51.27-13.35-3.18-4.57-7.51-4.21-11-5.15-35.74-9.66-72.09-17.47-107.2-29C305.43,298.52,283.83,312.83,259.74,319.12Zm134.47,48.95c1.34-4.12,0-6.91-4.86-8.2q-67.05-17.67-134-35.61c-3.4-.9-6.23-1.33-8,2.5-1.56,3.35-.67,6.34,1.73,8.71,4.65,4.56,10.54,7.14,16.65,9,9.14,2.73,18.34,5.32,27.61,7.52,31.24,7.43,61.58,18.4,93.48,23.25C393,376.15,395.63,375,394.21,368.07Z" transform="translate(-0.37 -2.22)"/><path class="cls-1" d="M413.2,773.27q0-116.32.07-232.64c0-3.88.36-7.76.56-11.64,2.41,2,4.69,4.32,8.29,2.92q.06,6.93.11,13.86c-2.24.3-5.12-1.34-6.38,1.71-.23.54,1.51,1.89,2.34,2.87q-.22,43.1-.43,86.19c-2.23,4-1.34,8.3-1.35,12.48-.07,38.18,0,76.36-.19,114.54C416.2,766.81,418.84,771.52,413.2,773.27Z" transform="translate(-0.37 -2.22)"/><path class="cls-1" d="M635.59,439.2V710.13C633,696.93,630.83,453.07,635.59,439.2Z" transform="translate(-0.37 -2.22)"/><path class="cls-1" d="M256,667.67l.09-161.75c4.38,2.61,4.17,6.83,4.17,11.16-.06,46.31,0,92.62-.17,138.93C260.06,660.08,262.26,665.54,256,667.67Z" transform="translate(-0.37 -2.22)"/><path class="cls-1" d="M268.89,508.29c5.05-2.56,9.62.29,14.19,1.52,35.53,9.51,71,19.2,106.51,28.84.18,1.16.36,2.33.55,3.49q-58.31-15.25-116.57-30.56C271.76,511.1,269.09,511.28,268.89,508.29Z" transform="translate(-0.37 -2.22)"/><path class="cls-1" d="M376,506.06l.27.14c-1.94-2.91-5-1.88-7.72-2.27l.28.14a33.44,33.44,0,0,0-16.24-4.39l.28.13c-2.72-3.21-6.53-1.69-9.86-2.25l.22.16c-1.21-3.62-4.4-1.55-6.61-2.29l.27.14c-5.28-3.34-11.2-4.22-17.3-4.39l.24.16c-1.29-3.39-4.37-1.65-6.62-2.29l.2.15c-.72-3.51,1.15-4.68,4.13-3.87q42.1,11.37,84.15,23c.49.13.76,1.06,1.37,2-3.78,1.89-7.44-.58-11,0l.18.19c-1.5-2.85-4.33-1.81-6.64-2.28l.31.1C383,506,379.47,506.19,376,506.06Z" transform="translate(-0.37 -2.22)"/><path class="cls-1" d="M414.34,526.15c-2.21-10.14-.71-20.4-.95-30.6,2.87.75,5.73,1.11,8.57-.1l.15,7.39-2.83,2,2.89,1.82v1c-4.47,2.43-3.75,4.88,0,7.34a.67.67,0,0,1-.19,1c-2.76,1.78-.4,3.58,0,5.37l.3,3C419.52,524.6,416.68,524.27,414.34,526.15Z" transform="translate(-0.37 -2.22)"/><path class="cls-1" d="M741,656.35l-.28.25c4.37.07,7.46,1.21,7.11,6.63-.33,5.26,0,10.56-.08,15.84,0,2.42.25,5.39-3.28,5.53s-5.18-2-5.08-5.35C739.62,671.6,738.1,663.82,741,656.35Z" transform="translate(-0.37 -2.22)"/><path class="cls-1" d="M435.63,469.92l.27.15c-7-4-14.76-5.44-22.61-6.53l.28,0c-1.13-.85-3.16-1.63-3.22-2.54-.16-2.68,2.39-2.11,3.74-1.79,8.21,1.95,16.38,4.08,24.53,6.26,10.42,2.78,20.8,5.67,33,9-8,4-13.24-1.09-18.88-.42l.2.19c-2.78-3-6.51-1.8-9.87-2.25l.25.15C441.58,468.68,438.22,470.62,435.63,469.92Z" transform="translate(-0.37 -2.22)"/><path class="cls-1" d="M418.6,482.68l.28.14c-10.58-4.86-21.76-7.39-33.27-8.65l.22.13c-1.09-3.87-7.18-.82-7.8-7a374.37,374.37,0,0,1,59.54,17.44H426.13l.18.18C424.51,481.61,421.22,483.29,418.6,482.68Z" transform="translate(-0.37 -2.22)"/><path class="cls-1" d="M518.73,457.12l.19.18c-2-2.74-5-1.91-7.73-2.26l.28.14a72.69,72.69,0,0,0-25.82-6.51l.23.16c-1.27-3.46-4.38-1.62-6.62-2.29l.28.14c-1.69-2.36-4.25-2.09-6.68-2.23l.07.25c2.17-4.4,6.27-3,9.27-2.27,16.72,4.18,33.33,8.78,49.95,13.35.79.22,1.28,1.53,2.08,2.53C528.63,460.9,523.88,456.17,518.73,457.12Z" transform="translate(-0.37 -2.22)"/><path class="cls-1" d="M535.66,444.42l.28.14c-1.93-2.95-5-1.88-7.72-2.27l.27.14a33.61,33.61,0,0,0-15.17-4.4l.3,0-6-3.1c20.32.62,38.79,7.95,57.76,13.5-7.88,2.84-14.64-2.87-22.18-1.95l.18.19C541.56,443.36,538.28,445,535.66,444.42Z" transform="translate(-0.37 -2.22)"/><path class="cls-1" d="M588.44,394a127.87,127.87,0,0,1-.42-28.27l4.41.51,0,5.51c-1.39.25-2.67.85-2.26,2.46.92,3.59,4.07,2.62,6.56,2.93q-.07,8.1-.14,16.21C593.73,392.26,591.06,392.85,588.44,394Z" transform="translate(-0.37 -2.22)"/><path class="cls-1" d="M587.74,641.55q.35-20.17.67-40.35C592.45,614.72,594,628.2,587.74,641.55Z" transform="translate(-0.37 -2.22)"/><path class="cls-1" d="M667,444.48c-4.65-3.63-11.75-1.76-15.23-8.75l49.61,13.1c-12.43,3.6-23-4-34.67-4.48Z" transform="translate(-0.37 -2.22)"/><path class="cls-1" d="M574.06,472l.19.19c-2-2.9-5-1.87-7.72-2.27l.2.18c0-1.52,0-3.05,0-4.57l-.18.17,39.29,9.38C592.75,479.14,583.86,471.56,574.06,472Z" transform="translate(-0.37 -2.22)"/><path class="cls-1" d="M473.94,497.56l.17.26L468,492.76c14.2.34,25.37,5.16,36.78,9.16-8.28,2.88-15.36-3.32-23.31-2.28l.17.19C479.88,496.37,476.54,498.22,473.94,497.56Z" transform="translate(-0.37 -2.22)"/><path class="cls-1" d="M548.43,482.68l.27.14c-1.9-3.05-5.06-1.8-7.71-2.27l.27.14c-.92-3.41-8.79-.11-6.46-6.66l-.19.15,36.59,9.29c-5.25,4-9.27.78-13.07,1.25l.19.19C555.42,482.4,551.84,482.93,548.43,482.68Z" transform="translate(-0.37 -2.22)"/><path class="cls-1" d="M500.66,487.12c.61-2.57,2.63-3.4,4.79-3.05a171.69,171.69,0,0,1,33.46,9.08c-7.15,3-12.07-1-17,.12l.17.19c-3.58-3.66-8.33-3.89-13-4.41l.3.1c-2.62-2-5.71-2.15-8.82-2.22Z" transform="translate(-0.37 -2.22)"/><path class="cls-1" d="M598.59,457.15c11.09,1.2,21.58,4.47,33.64,8.72-4.39,2.86-7.47,1.72-10.31,1.9l.17.19c-1.22-3.6-4.39-1.57-6.61-2.29l.27.14c-5.29-3.34-11.2-4.22-17.3-4.39l.15.17c.07-1.54.14-3.08.2-4.62Z" transform="translate(-0.37 -2.22)"/><path class="cls-1" d="M256.1,504.16q0-8.66-.07-17.33l4.17,2.31.2,14.45Z" transform="translate(-0.37 -2.22)"/><path class="cls-1" d="M727.44,607.8l-.25.14c1.4,0,2.81.08,4.21,0,3-.24,6.2-.29,5.37,4s-4.18,2.51-6.7,1.8c-2.15-.61-4.19-1.61-6.28-2.43Z" transform="translate(-0.37 -2.22)"/><path class="cls-1" d="M650.49,454.1c6.73-1,11.81,2.23,18.53,3.5C659.19,460.29,658.92,460.24,650.49,454.1Z" transform="translate(-0.37 -2.22)"/><path class="cls-1" d="M466.78,441.75c-.11-1.06-.21-2.13-.32-3.2,1.85-.23,3.79,0,3.59,2.27C469.9,442.49,468.14,442.28,466.78,441.75Z" transform="translate(-0.37 -2.22)"/><path class="cls-1" d="M539.91,414.29v.36a1.15,1.15,0,0,1,1.22.93l.15,3C536.72,418.47,537.61,416.6,539.91,414.29Z" transform="translate(-0.37 -2.22)"/><path class="cls-1" d="M390.36,498.76l0-.18c-1.47.77-3,1.31-4.53.26-.06,0,0-.44.08-.48A3.74,3.74,0,0,1,390.36,498.76Z" transform="translate(-0.37 -2.22)"/><path class="cls-1" d="M392,499.54l5,.64c-2.08,2.61-3.54,1.12-4.94-.7Z" transform="translate(-0.37 -2.22)"/><path class="cls-1" d="M406.08,375.29c-3.81-.09-8,1.54-8.7-4.74-.67-6.1.78-9.42,7.54-11.21q131.15-34.72,262.16-70c16.72-4.47,33.49-8.79,50.18-13.4,3.32-.91,6.22-1.92,8.15,1.9,1.84,3.66,1,6.85-2,9.53-6,5.33-13.31,8.05-20.84,10.07q-140.94,37.69-281.92,75.2C415.89,373.92,410.94,374.43,406.08,375.29Z" transform="translate(-0.37 -2.22)"/><path class="cls-1" d="M394.21,368.07c1.42,6.91-1.21,8.08-7.43,7.13-31.9-4.85-62.24-15.82-93.48-23.25-9.27-2.2-18.47-4.79-27.61-7.52-6.11-1.82-12-4.4-16.65-9-2.4-2.37-3.29-5.36-1.73-8.71,1.78-3.83,4.61-3.4,8-2.5q67,17.92,134,35.61C394.22,361.16,395.55,364,394.21,368.07Z" transform="translate(-0.37 -2.22)"/><path class="cls-2" d="M366.72,431.79a661.15,661.15,0,0,1,78.63-21.36l-.15-.23c-.95,4.54-5.32,3.32-8,4.08-20.12,5.72-40.39,10.94-60.6,16.34-3.33.89-6.57,2.45-10.11,1Z" transform="translate(-0.37 -2.22)"/><path class="cls-2" d="M445.35,410.43c17.67-6.86,36.23-10.31,54.67-14.26-18.18,5-35.53,13.24-54.81,14Z" transform="translate(-0.37 -2.22)"/><path class="cls-2" d="M366.52,431.58a183.32,183.32,0,0,1-55.4,14.75l.14.24a331.31,331.31,0,0,1,55.46-14.78Z" transform="translate(-0.37 -2.22)"/><path class="cls-2" d="M555.94,380.56c-16.36,8.54-34.74,9.92-52.19,14.61,17.27-5.49,34.25-12.05,52.39-14.4Z" transform="translate(-0.37 -2.22)"/><path class="cls-2" d="M611.4,497.56c-2.26,2.71-5,2.42-9.93,1.86,4.61-2.19,7.18-3.24,10.08-1.62Z" transform="translate(-0.37 -2.22)"/><path class="cls-2" d="M596.68,377.13c-2.49-.31-5.64.66-6.56-2.93-.41-1.61.87-2.21,2.26-2.46,9.77,5.41,21.4,5.24,33,10.89C614.2,382.93,605.87,377.73,596.68,377.13Z" transform="translate(-0.37 -2.22)"/><path class="cls-2" d="M655.6,390.83c-10.08-.68-19.62-3.53-28.88-7.5C636.8,384,646.3,387,655.6,390.83Z" transform="translate(-0.37 -2.22)"/><path class="cls-2" d="M687.53,399c-10.26.32-19.39-3.94-28.88-6.77C668.88,392,678,396.23,687.53,399Z" transform="translate(-0.37 -2.22)"/><path class="cls-2" d="M691,399.28l28.1,7.27C709.16,407.5,700.18,403.9,691,399.28Z" transform="translate(-0.37 -2.22)"/><path class="cls-2" d="M681.44,514.62c11.08-4.42,22.34-8.14,34.41-8.59C704.78,510.5,693.53,514.25,681.44,514.62Z" transform="translate(-0.37 -2.22)"/><path class="cls-2" d="M715.53,506.18c2.29-3.32,5.36-3.58,8.84-2.24C721.84,506.35,718.73,506.44,715.53,506.18Z" transform="translate(-0.37 -2.22)"/><path class="cls-2" d="M534.8,474c-2.33,6.55,5.54,3.25,6.46,6.66-7.3.51-14.14-3.59-21.53-2.14C524.05,474.72,529.23,473.7,534.8,474Z" transform="translate(-0.37 -2.22)"/><path class="cls-2" d="M434.6,503.85c7.61.78,15.17,1.74,21.54,6.59C448.54,509.6,441,508.59,434.6,503.85Z" transform="translate(-0.37 -2.22)"/><path class="cls-2" d="M566.74,465.53c0,1.52,0,3.05,0,4.57l-15.06,0C555.91,466,561.16,465.2,566.74,465.53Z" transform="translate(-0.37 -2.22)"/><path class="cls-2" d="M509.07,489.05c4.65.52,9.4.75,13,4.41C517.39,493,512.48,493.19,509.07,489.05Z" transform="translate(-0.37 -2.22)"/><path class="cls-2" d="M500.55,486.93c3.11.07,6.2.19,8.82,2.22C506.06,489.86,502.76,490.55,500.55,486.93Z" transform="translate(-0.37 -2.22)"/><path class="cls-2" d="M473.94,497.56c2.6.66,5.94-1.19,7.7,2.27C478.85,499.83,475.87,500.47,473.94,497.56Z" transform="translate(-0.37 -2.22)"/><path class="cls-2" d="M422.17,506.65l-2.89-1.82,2.83-2A2.34,2.34,0,0,1,422.17,506.65Z" transform="translate(-0.37 -2.22)"/><path class="cls-2" d="M602.72,427.34a20.9,20.9,0,0,1,15.19,4.44A22.84,22.84,0,0,1,602.72,427.34Z" transform="translate(-0.37 -2.22)"/><path class="cls-2" d="M488.09,431.78l-13.1,0C479.37,428.89,483.74,427.47,488.09,431.78Z" transform="translate(-0.37 -2.22)"/><path class="cls-2" d="M539.92,414.65c4.18-4.18,8.78-2.79,15.1-.88l-13.88,1.81A1.15,1.15,0,0,0,539.92,414.65Z" transform="translate(-0.37 -2.22)"/><path class="cls-2" d="M577.15,421a11.37,11.37,0,0,1,11,2.19A12,12,0,0,1,577.15,421Z" transform="translate(-0.37 -2.22)"/><path class="cls-2" d="M594.19,425.24c3.22-.32,6.57-1.12,8.85,2.26C599.82,427.78,596.47,428.59,594.19,425.24Z" transform="translate(-0.37 -2.22)"/><path class="cls-2" d="M381.67,457.09c-1.22,3.63-4.27,2-6.67,2.33C376.17,455.64,379.23,457.27,381.67,457.09Z" transform="translate(-0.37 -2.22)"/><path class="cls-2" d="M388,457.29l-6.68,0C383.6,454.77,385.83,453.06,388,457.29Z" transform="translate(-0.37 -2.22)"/><path class="cls-2" d="M587.84,423.07c2.4.27,5.44-1.28,6.66,2.33C592.07,425.24,589,426.85,587.84,423.07Z" transform="translate(-0.37 -2.22)"/><path class="cls-2" d="M602.7,410.65c11.47-1.3,21.08,5.09,31.65,7.48-10.88-1-21.5-3.1-31.5-7.71Z" transform="translate(-0.37 -2.22)"/><path class="cls-2" d="M658.09,425.42c11.25-1.22,20.81,4.91,31.17,7.52-10.64-1.23-21.16-3-31-7.73Z" transform="translate(-0.37 -2.22)"/><path class="cls-2" d="M658.29,425.21c-7.43.3-13.94-3-20.61-5.66,7.05,1,14.52.52,20.41,5.87Z" transform="translate(-0.37 -2.22)"/><path class="cls-2" d="M702.44,615.31c-1.47,1.68-4,2.48-4.78.75-.9-1.95,1.82-1.52,3.11-1.66C701.27,614.34,701.84,615,702.44,615.31Z" transform="translate(-0.37 -2.22)"/><path class="cls-2" d="M319.63,491.18c6.1.17,12,1.05,17.3,4.39A30.26,30.26,0,0,1,319.63,491.18Z" transform="translate(-0.37 -2.22)"/><path class="cls-2" d="M352.63,499.68a33.44,33.44,0,0,1,16.24,4.39A24.74,24.74,0,0,1,352.63,499.68Z" transform="translate(-0.37 -2.22)"/><path class="cls-2" d="M376,506.06c3.43.13,6.93,0,9.89,2.22C382.26,509.2,378.82,509.07,376,506.06Z" transform="translate(-0.37 -2.22)"/><path class="cls-2" d="M343.05,497.56c3.33.56,7.14-1,9.86,2.25C349.36,500.19,345.89,500.25,343.05,497.56Z" transform="translate(-0.37 -2.22)"/><path class="cls-2" d="M313.25,489.05c2.25.64,5.33-1.1,6.62,2.29C317.49,491.06,314.51,492.54,313.25,489.05Z" transform="translate(-0.37 -2.22)"/><path class="cls-2" d="M336.66,495.43c2.21.74,5.4-1.33,6.61,2.29C340.89,497.46,338,498.65,336.66,495.43Z" transform="translate(-0.37 -2.22)"/><path class="cls-2" d="M385.62,508.18c2.31.47,5.14-.57,6.64,2.28C389.83,510.33,386.84,511.82,385.62,508.18Z" transform="translate(-0.37 -2.22)"/><path class="cls-2" d="M368.59,503.93c2.68.39,5.78-.64,7.72,2.27C373.53,506.14,370.39,507.33,368.59,503.93Z" transform="translate(-0.37 -2.22)"/><path class="cls-2" d="M492.13,467.89c-10.26-.67-19.53-5-29.22-7.86a92.94,92.94,0,0,1,30,7.08Z" transform="translate(-0.37 -2.22)"/><path class="cls-2" d="M513.32,438a33.61,33.61,0,0,1,15.17,4.4A20.52,20.52,0,0,1,513.32,438Z" transform="translate(-0.37 -2.22)"/><path class="cls-2" d="M528.22,442.29c2.68.39,5.79-.68,7.72,2.27C533.16,444.5,530,445.65,528.22,442.29Z" transform="translate(-0.37 -2.22)"/><path class="cls-2" d="M535.66,444.42c2.62.6,5.9-1.06,7.71,2.27C540.58,446.68,537.55,447.47,535.66,444.42Z" transform="translate(-0.37 -2.22)"/><path class="cls-2" d="M413.29,463.54c7.85,1.09,15.59,2.55,22.61,6.53C428,469.18,420.13,468.12,413.29,463.54Z" transform="translate(-0.37 -2.22)"/><path class="cls-2" d="M443.08,472.05c3.36.45,7.09-.72,9.87,2.25C449.39,474.72,445.88,474.93,443.08,472.05Z" transform="translate(-0.37 -2.22)"/><path class="cls-2" d="M435.63,469.92c2.59.7,5.95-1.24,7.7,2.28C440.54,472.19,437.58,472.78,435.63,469.92Z" transform="translate(-0.37 -2.22)"/><path class="cls-2" d="M485.65,448.67a72.69,72.69,0,0,1,25.82,6.51C502.32,455.17,493.91,452.18,485.65,448.67Z" transform="translate(-0.37 -2.22)"/><path class="cls-2" d="M511.19,455c2.69.35,5.74-.48,7.73,2.26C516.13,457.29,513,458.58,511.19,455Z" transform="translate(-0.37 -2.22)"/><path class="cls-2" d="M472.86,444.45c2.43.14,5-.13,6.68,2.23C477.05,446.73,474.11,448.12,472.86,444.45Z" transform="translate(-0.37 -2.22)"/><path class="cls-2" d="M479.26,446.54c2.24.67,5.35-1.17,6.62,2.29C483.51,448.53,480.55,450,479.26,446.54Z" transform="translate(-0.37 -2.22)"/><path class="cls-2" d="M560.13,433.76c9.21-.17,17.72,2.49,25.88,6.49C576.82,440.34,568.4,437.35,560.13,433.76Z" transform="translate(-0.37 -2.22)"/><path class="cls-2" d="M385.61,474.17c11.51,1.26,22.69,3.79,33.27,8.65A126.38,126.38,0,0,1,385.61,474.17Z" transform="translate(-0.37 -2.22)"/><path class="cls-2" d="M418.6,482.68c2.62.61,5.91-1.07,7.71,2.27C423.52,485,420.5,485.72,418.6,482.68Z" transform="translate(-0.37 -2.22)"/><path class="cls-2" d="M430.58,521.08c-2.86.83-5.82-1.72-8.65.25-.38-1.79-2.74-3.59,0-5.37C424,519.12,429.17,516.92,430.58,521.08Z" transform="translate(-0.37 -2.22)"/><path class="cls-2" d="M548.43,482.68c3.41.25,7-.28,9.89,2.23C554.68,485.67,551.22,485.68,548.43,482.68Z" transform="translate(-0.37 -2.22)"/><path class="cls-2" d="M541,480.55c2.65.47,5.81-.78,7.71,2.27C545.93,482.75,542.81,483.85,541,480.55Z" transform="translate(-0.37 -2.22)"/><path class="cls-2" d="M598.45,461.42c6.1.17,12,1.05,17.3,4.39A30.08,30.08,0,0,1,598.45,461.42Z" transform="translate(-0.37 -2.22)"/><path class="cls-2" d="M615.48,465.67c2.22.72,5.39-1.31,6.61,2.29C619.71,467.7,616.83,468.9,615.48,465.67Z" transform="translate(-0.37 -2.22)"/><path class="cls-2" d="M566.53,469.92c2.68.4,5.77-.63,7.72,2.27C571.47,472.14,568.32,473.32,566.53,469.92Z" transform="translate(-0.37 -2.22)"/></svg>