<?xml version="1.0" encoding="utf-8"?>
<!-- Generator: Adobe Illustrator 25.2.1, SVG Export Plug-In . SVG Version: 6.00 Build 0)  -->
<svg version="1.1" id="Layer_1" xmlns="http://www.w3.org/2000/svg" xmlns:xlink="http://www.w3.org/1999/xlink" x="0px" y="0px"
	 viewBox="0 0 999.6 997.3" style="enable-background:new 0 0 999.6 997.3;" xml:space="preserve">
<style type="text/css">
	.st0{fill:#C4C4C4;}
	.st1{fill:#D3D2D2;stroke:#1D1D1B;stroke-miterlimit:10;}
	.st2{fill:none;stroke:#1D1D1B;stroke-linecap:round;stroke-linejoin:round;}
	.st3{fill:none;stroke:#000000;stroke-width:5;stroke-miterlimit:10;}
</style>
<path class="st0" d="M500.5,0C775.6-0.8,1000,221.5,999.6,499.3c-0.4,276.3-224.3,498.9-503,498C224,996.4-3.4,771.3,0,491.8
	C3.4,222.9,224.8-2.1,500.5,0z M987.8,497.5C987.3,230.7,772.1,10.8,499.5,11.1C228.3,11.4,11.9,227.4,11.6,497.9
	c-0.3,270.8,215.6,487.6,487.7,488C771.8,986.3,988.2,766.7,987.8,497.5z"/>
<path class="st1" d="M136.2,740V400.8h90.5c7.5,0,14.3,4.4,17.3,11.2L259,445c2.7,5.9,7.8,10.3,14.1,12l156.4,41.9
	c5.2,1.4,10.6,1.6,15.9,0.7l237.9-43c7.4-1.3,13.9-5.8,17.7-12.3l19-31.9c3.8-6.3,10.6-10.2,18-10.3h148.2v338L136.2,740z"/>
<path class="st2" d="M207.4,231l84.7,167.2c3.4,6.8,9.4,11.9,16.6,14.3l118.6,39.4c5.2,1.7,10.8,1.7,15.9,0l81.1-27
	c12.5-4.2,21.8-4,15.5-15.6l0,0c-4.9-9-15.5-13.2-25.2-10l-41.6,13.4c-5.1,1.6-10.6-0.2-13.7-4.5c0,0-1.5-4.7,6.7-7l68.4-18.6
	c5.8-1.6,11.9-1.1,17.4,1.3l80.3,35.2c12.1,5.3,26,4.7,37.6-1.6l6.4-3.5c3.9-2.1,5.3-7,3.1-10.9c-0.7-1.3-1.8-2.4-3.1-3.1L566,340.5
	c-3.6-1.9-7.6-3.1-11.6-3.3l-92.4-5.8c-2.8-0.2-5.7,0.1-8.4,0.8l-58.1,14.1c-7.6,1.8-15.4-2-18.6-9.2l-56.3-128.2"/>
<line class="st3" x1="183.2" y1="806.9" x2="816.2" y2="233.6"/>
<line class="st3" x1="183.2" y1="233.6" x2="816.2" y2="806.9"/>
</svg>
