<svg id="Layer_1" data-name="Layer 1" xmlns="http://www.w3.org/2000/svg" viewBox="0 0 999.63 997.3"><defs><style>.cls-1{fill:#d3d2d2;}.cls-1,.cls-2,.cls-3,.cls-4,.cls-5{stroke:#1d1d1b;}.cls-1,.cls-2,.cls-4,.cls-5,.cls-6{stroke-miterlimit:10;}.cls-2,.cls-3,.cls-4{fill:#fff;}.cls-2{stroke-width:0.5px;}.cls-3{stroke-linejoin:round;}.cls-5,.cls-6{fill:none;}.cls-6{stroke:#2858a3;}.cls-7{fill:#c4c4c4;}</style></defs><rect class="cls-1" x="76.63" y="498.68" width="846" height="107.24" rx="3.89"/><line class="cls-2" x1="243.53" y1="496.19" x2="243.53" y2="605.87"/><line class="cls-2" x1="593.66" y1="496.19" x2="593.66" y2="605.87"/><line class="cls-2" x1="413.44" y1="496.19" x2="413.44" y2="605.87"/><line class="cls-2" x1="753.27" y1="496.19" x2="753.27" y2="605.87"/><path class="cls-3" d="M790.92,488.38c-1.8,0-8.77.17-18.2,5.81-11.49,6.87-14.35,14.52-20.31,20.57-12.9,13.08-33.76,12-56.46,10.82-26.35-1.37-25.78-7.77-60.15-11.34a244.16,244.16,0,0,0-45.9-1.06c-19.4,1.46-23.62,4.26-39.84,5-14.1.65-22.82-.92-46.16-4.75-63.77-10.45-80.19-12.07-91-12.92-27.62-2.19-39.12-1-47.22.26-18.67,3-19.43,6.71-38.78,9.76-11.54,1.82-31.18,4.92-54.08,0-9.44-2-17.41-5-33-6.59-3.48-.36-8.39-.6-18.2-1.06-24.82-1.17-28-.29-30.6.79-5.33,2.19-7.52,4.78-15.57,7.13-5.54,1.61-8.95,1.67-12.13.52a14.9,14.9,0,0,1-6.6-4.75c-4.26-5.59-2.58-13.22-2.11-17.14,2.86-23.92-24.18-38.47-17.14-54.88a17.75,17.75,0,0,1,5.87-7.18c1.24,1.41,3.17,3.62,5.47,6.39,12.57,15.18,13.38,19.6,21.89,28.49,6,6.3,11.31,11.69,19.79,14a34.25,34.25,0,0,0,15.83.26c8.59-1.62,52.83-10,87.58-8.18,14.9.78,28.28,3.43,42-3.95,3.21-1.74,5.83-3.7,11.08-5.54,12.6-4.44,23.55-2.32,29-1.59,16.91,2.26,26.31-2.75,45.9-6.59,45.36-8.91,93.2-1.34,184.67-10.29,51-5,99-13.5,120.56,2.37a66.38,66.38,0,0,0,30.07,13.19c9.17,1.4,8.92-1.26,23.75-1.05" transform="translate(-0.37 -2.22)"/><path class="cls-3" d="M697.54,468.77a43.22,43.22,0,0,1-.7,4.63l-91.31,12.75s-2.91-33.79-1.16-40.56c.4-1.55,2.15-3,4.4-4.17,5.79-3,13.19-6.58,11.82-8.58-6-8.8-22.12-12.75-32.21-6.49a19.35,19.35,0,0,0-9.27,13c-4.72,20-6,58.95-5.8,67.68,0,2.24,3.13,8.39,8.81,8.57,16.92.54,33.68-.38,43.11-.46,17.49-.14,53.69-2.86,76.94-4.4" transform="translate(-0.37 -2.22)"/><ellipse class="cls-4" cx="822.46" cy="463.2" rx="49.46" ry="34.88" transform="translate(-85.07 200.09) rotate(-13.34)"/><path class="cls-5" d="M421.28,581.48" transform="translate(-0.37 -2.22)"/><path class="cls-5" d="M723.13,383.85" transform="translate(-0.37 -2.22)"/><path class="cls-6" d="M573.3,383.85" transform="translate(-0.37 -2.22)"/><path class="cls-6" d="M595.5,396.46c-23.87-60.08-40.89-66.1-49.17-65.56-30.37,2-46.79,99-52.45,137.68" transform="translate(-0.37 -2.22)"/><line class="cls-6" x1="581.1" y1="385.5" x2="595.13" y2="394.24"/><path class="cls-6" d="M609.25,387.72" transform="translate(-0.37 -2.22)"/><line class="cls-6" x1="602.88" y1="382.18" x2="593.66" y2="395.9"/><path class="cls-5" d="M498.09,354" transform="translate(-0.37 -2.22)"/><path class="cls-7" d="M500.86,2.23C776,1.46,1000.38,223.75,1000,501.56c-.38,276.29-224.28,498.92-503,498C224.35,998.58-3,773.5.41,494,3.74,225.16,225.2.15,500.86,2.23ZM988.15,499.71C987.72,232.88,772.47,13,499.86,13.3,228.66,13.65,12.23,229.6,12,500.1c-.27,270.84,215.57,487.55,487.73,488C772.19,988.55,988.62,768.91,988.15,499.71Z" transform="translate(-0.37 -2.22)"/></svg>