<svg id="Layer_1" data-name="Layer 1" xmlns="http://www.w3.org/2000/svg" viewBox="0 0 999.63 997.3"><defs><style>.cls-1{fill:#0b0b0b;}.cls-2{fill:#ddd;}.cls-3{fill:#c4c4c4;}</style></defs><path class="cls-1" d="M424,400.54c0-35.91-.09-71.82,0-107.72.08-27.31,13.61-44.35,39.88-47.1,20.11-2.11,40.61-2.7,60.74.66,22.54,3.76,35.83,19.13,36.75,41.89.57,13.91.73,27.9-.08,41.79-.56,9.56,3.13,11.68,11.82,11.28,13.87-.63,27.81.15,41.7-.3,6.82-.22,9.32,1.68,9.31,8.9s-3.42,7.59-8.87,7.51c-13.9-.21-27.82.31-41.71-.21-8.3-.31-12.53,1.12-12.27,11.05.68,25.17.51,50.37.06,75.55-.14,7.7,2,10.25,9.84,10,16.56-.6,33.15-.1,49.73-.22,6.14,0,11.48-.69,11.28,8.64-.18,8.67-5.33,7.59-10.65,7.59-16,0-32.13.71-48.11-.26-10.37-.62-13.42,3.16-12,12.64a23,23,0,0,1,0,6.42c-2.94,21.5,3.66,36.37,21.82,51.25,41.2,33.76,51.76,95,29.37,143.74-23.52,51.15-76.41,80.73-131.91,73.8-56.21-7-100.86-47.5-110.59-100.85-9-49.64,6.29-90.85,44.64-123.15,6.9-5.81,9.47-11.54,9.37-20.33C423.79,475.57,424,438.05,424,400.54Zm119.62,45.28c0-25.2-.57-50.42.27-75.59.36-10.88-3.26-13.35-13.46-13.07q-38.5,1-77,0c-10.11-.29-12.5,2.87-12.4,12.65.49,48.79-.31,97.6.56,146.37.25,13.77-4,22.07-14.94,30.54-63.09,49-52,149,19.67,183.17,54.54,26,116.64,6.66,147.11-45.87,27.9-48.12,11.14-111.48-38.9-144.83-8.14-5.42-11.32-11.28-11.07-21C544.07,494.09,543.66,470,543.66,445.82ZM495.11,341.17c13.95-1.37,36.56,7.29,46.06-3.33,8.32-9.3,2.62-31.55,2.38-48.07-.24-16.22-9.51-25.95-25.77-26.58-17.08-.66-34.23-.68-51.3.09-15.19.68-24.47,10.48-25.09,25.79-.57,13.91.41,27.89-.34,41.78-.49,8.95,3.07,10.8,11.06,10.47C465.45,340.77,478.84,341.17,495.11,341.17Z" transform="translate(-0.37 -2.22)"/><path class="cls-2" d="M543.66,445.82c0,24.13.41,48.27-.2,72.38-.25,9.69,2.93,15.55,11.07,21,50,33.35,66.8,96.71,38.9,144.83-30.47,52.53-92.57,71.89-147.11,45.87-71.7-34.2-82.76-134.17-19.67-183.17,10.91-8.47,15.19-16.77,14.94-30.54-.87-48.77-.07-97.58-.56-146.37-.1-9.78,2.29-12.94,12.4-12.65q38.49,1.11,77,0c10.2-.28,13.82,2.19,13.46,13.07C543.09,395.4,543.66,420.62,543.66,445.82Z" transform="translate(-0.37 -2.22)"/><path class="cls-3" d="M500.86,2.23C776,1.46,1000.38,223.75,1000,501.56c-.38,276.29-224.28,498.92-503,498C224.35,998.58-3,773.5.41,494,3.74,225.16,225.2.15,500.86,2.23ZM988.15,499.71C987.72,232.88,772.47,13,499.86,13.3,228.66,13.65,12.23,229.6,12,500.1c-.27,270.84,215.57,487.55,487.73,488C772.19,988.55,988.62,768.91,988.15,499.71Z" transform="translate(-0.37 -2.22)"/></svg>