<svg id="Layer_1" data-name="Layer 1" xmlns="http://www.w3.org/2000/svg" viewBox="0 0 999.63 997.3"><defs><style>.cls-1{fill:#c4c4c4;}.cls-2{fill:#d3d2d2;}.cls-2,.cls-3,.cls-4{stroke:#1d1d1b;}.cls-2,.cls-3,.cls-4,.cls-5,.cls-6,.cls-7{stroke-miterlimit:10;}.cls-3,.cls-4{fill:#fff;}.cls-3,.cls-6{stroke-width:0.5px;}.cls-5,.cls-6{fill:none;stroke:#d3d2d2;}.cls-7{fill:#2858a3;stroke:#2858a3;opacity:0.3;}</style></defs><path class="cls-1" d="M500.86,2.23C776,1.46,1000.38,223.75,1000,501.56c-.38,276.29-224.28,498.92-503,498C224.35,998.58-3,773.5.41,494,3.74,225.16,225.2.15,500.86,2.23ZM988.15,499.71C987.72,232.88,772.47,13,499.86,13.3,228.66,13.65,12.23,229.6,12,500.1c-.27,270.84,215.57,487.55,487.73,488C772.19,988.55,988.62,768.91,988.15,499.71Z" transform="translate(-0.37 -2.22)"/><rect class="cls-2" x="76.63" y="499.26" width="846" height="107.24" rx="3.89"/><line class="cls-3" x1="243.53" y1="496.77" x2="243.53" y2="606.45"/><line class="cls-3" x1="593.66" y1="496.77" x2="593.66" y2="606.45"/><line class="cls-3" x1="413.44" y1="496.77" x2="413.44" y2="606.45"/><line class="cls-3" x1="753.27" y1="496.77" x2="753.27" y2="606.45"/><path class="cls-4" d="M114.2,481.28c-2.38,4.84-5.38,14.72-.8,19.9,3.32,3.75,8.24,2.34,19.9,2.38,24.38.09,26.46,6.34,41.39,3.19,11.07-2.34,11.3-6.07,21.49-7.17,12.88-1.38,22.61,4.74,27.85,5.58,28.39,4.51,57.5,16.65,83.58,14.32s31.54-12.19,53.33-8c11.77,2.29,18.15,4,34.14,10.73,22,9.32,35.93,13.86,59,17.13,32.05,4.55,102.87,22.24,145.29,16.79,11.45-1.47,77.31-16.64,99.43-4.49,6,3.3,43.55-8.61,49.78-14.69,3.26-3.18,3.56-5.83,8.75-26.26,3.43-13.48,4.48-17,8-19.9,4.88-4.08,11.37-4.35,15.92-4l.51-5.2c7.74,14.63,33.35,21.66,52.16,19.25,14.37-1.84,34-10.37,40.52-27.59" transform="translate(-0.37 -2.22)"/><path class="cls-5" d="M874.38,473.31a27,27,0,0,0,1.81-14.54c-3.29-18.54-27.56-29.75-54.22-25-17,3-30.84,11.78-37.81,22.54l.75-7.64c-7.21-1.08-16.66-3.77-23.88-11.14-12.6-12.85-6.15-27.38-13.53-38.2-20.9-30.63-132.5-19.86-131.71-3.64.18,3.81,6.44,6.33,5.57,8-2,3.76-34.89-10.08-37.41-11.14C570,386.58,483.65,408.64,471.69,413c-53.59,19.44-79,35.15-115.8,37.27-14.76.85-19.35-4-36.61-2.79-24.77,1.72-42.93,12.83-68.82,16.92-12.58,2-12.93,1.69-35.18,2.58-15.52.62-19.71.21-24.68-1.59-8.52-3.1-12.08-7.68-18.3-6.37s-6.08,6.55-12.74,8.76c-7.74,2.57-11.05-3.5-20.69-3.19-10.32.34-20.27,7.73-24.67,16.72" transform="translate(-0.37 -2.22)"/><line class="cls-6" x1="758.79" y1="464.84" x2="552.26" y2="464.84"/><ellipse class="cls-7" cx="626.23" cy="471.35" rx="141.5" ry="92.52"/></svg>