<svg id="Layer_1" data-name="Layer 1" xmlns="http://www.w3.org/2000/svg" viewBox="0 0 999.63 997.3"><defs><style>.cls-1{fill:#c4c4c4;}.cls-2{fill:#d3d2d2;}.cls-2,.cls-3,.cls-4{stroke:#1d1d1b;}.cls-2,.cls-3,.cls-4,.cls-5,.cls-6,.cls-7{stroke-miterlimit:10;}.cls-3,.cls-4{fill:#fff;}.cls-3,.cls-6{stroke-width:0.5px;}.cls-5,.cls-6{fill:none;stroke:#d3d2d2;}.cls-7{fill:#2858a3;stroke:#2858a3;opacity:0.3;}</style></defs><path class="cls-1" d="M500.86,2.23C776,1.46,1000.38,223.75,1000,501.56c-.38,276.29-224.28,498.92-503,498C224.35,998.58-3,773.5.41,494,3.74,225.16,225.2.15,500.86,2.23ZM988.15,499.71C987.72,232.88,772.47,13,499.86,13.3,228.66,13.65,12.23,229.6,12,500.1c-.27,270.84,215.57,487.55,487.73,488C772.19,988.55,988.62,768.91,988.15,499.71Z" transform="translate(-0.37 -2.22)"/><rect class="cls-2" x="76.63" y="501.78" width="846" height="107.24" rx="3.89"/><line class="cls-3" x1="243.53" y1="499.3" x2="243.53" y2="608.98"/><line class="cls-3" x1="593.66" y1="499.3" x2="593.66" y2="608.98"/><line class="cls-3" x1="413.44" y1="499.3" x2="413.44" y2="608.98"/><line class="cls-3" x1="753.27" y1="499.3" x2="753.27" y2="608.98"/><path class="cls-4" d="M114.2,483.81c-2.38,4.47-5.38,13.58-.8,18.36,3.32,3.47,8.24,2.16,19.9,2.2,24.38.09,26.46,5.85,41.39,2.94,11.07-2.16,11.3-5.59,21.49-6.61,12.88-1.28,22.61,4.37,27.85,5.14,28.39,4.17,57.5,15.37,83.58,13.23s31.54-11.26,53.33-7.35c11.77,2.11,18.15,3.66,34.14,9.9,22,8.6,35.93,12.79,59,15.81,32.05,4.2,48.07,6.3,68.45,2.94,36.21-6,42.75-21.42,85.17-26.45,13.08-1.55,23.91-2.83,40,.21,18.51,1.41,32.25,10.59,56.29,23.8,6,3.31,14.25,8.21,25.48,8,3.85-.09,12.87-.29,19.1-6.37,3.26-3.18,3.56-5.83,8.75-26.26,3.43-13.48,4.48-17,8-19.9,4.88-4.08,11.37-4.35,15.92-4l.51-5.21c7.74,14.64,33.35,21.67,52.16,19.26,14.37-1.84,34-10.37,40.52-27.59" transform="translate(-0.37 -2.22)"/><path class="cls-5" d="M624,426.94c-2,2.77-35.57,7.24-38.09,6.45-13.92-4.34-23.8-8.16-25.47-8.79-35-13.24-92.31,2.08-104.27,5.27-53.59,14.32-63.53,29.51-100.29,31.07-14.76.63-19.35-2.94-36.61-2.05-24.77,1.27-42.93,9.45-68.82,12.46-12.58,1.47-12.93,1.25-35.18,1.9-15.52.46-19.71.16-24.68-1.17-8.52-2.28-12.08-5.65-18.3-4.69s-6.08,4.83-12.74,6.45c-7.74,1.89-11.05-2.57-20.69-2.34-10.32.24-20.27,5.68-24.67,12.31" transform="translate(-0.37 -2.22)"/><path class="cls-5" d="M874.38,475.84a27,27,0,0,0,1.81-14.54c-3.29-18.55-27.56-29.76-54.22-25-17,3-30.84,11.79-37.81,22.55l.75-7.64C777.7,450.09,768.25,447.4,761,440c-12.6-12.85-6.15-27.38-13.53-38.21-20.9-30.62-130.53.5-129.74,16.72.18,3.81,6.92,7.12,6.06,8.75" transform="translate(-0.37 -2.22)"/><line class="cls-6" x1="758.79" y1="467.37" x2="552.26" y2="467.37"/><polygon class="cls-7" points="765.13 549.62 503.24 467.33 765.13 384.17 765.13 549.62"/></svg>
