<svg id="Layer_1" data-name="Layer 1" xmlns="http://www.w3.org/2000/svg" viewBox="0 0 999.63 997.3"><defs><style>.cls-1{fill:#c4c4c4;}.cls-2{fill:#d3d2d2;}.cls-2,.cls-3,.cls-4{stroke:#1d1d1b;}.cls-2,.cls-3,.cls-4,.cls-5{stroke-miterlimit:10;}.cls-3,.cls-4{fill:#fff;}.cls-3,.cls-5{stroke-width:0.5px;}.cls-5{fill:none;stroke:#d3d2d2;}</style></defs><path class="cls-1" d="M500.86,2.23C776,1.46,1000.38,223.75,1000,501.56c-.38,276.29-224.28,498.92-503,498C224.35,998.58-3,773.5.41,494,3.74,225.16,225.2.15,500.86,2.23ZM988.15,499.71C987.72,232.88,772.47,13,499.86,13.3,228.66,13.65,12.23,229.6,12,500.1c-.27,270.84,215.57,487.55,487.73,488C772.19,988.55,988.62,768.91,988.15,499.71Z" transform="translate(-0.37 -2.22)"/><rect class="cls-2" x="76.24" y="501.97" width="846.31" height="107.28" rx="3.89"/><line class="cls-3" x1="243.2" y1="499.48" x2="243.2" y2="609.2"/><line class="cls-3" x1="593.46" y1="499.48" x2="593.46" y2="609.2"/><line class="cls-3" x1="413.17" y1="499.48" x2="413.17" y2="609.2"/><line class="cls-3" x1="753.12" y1="499.48" x2="753.12" y2="609.2"/><path class="cls-4" d="M876.08,461.47c-3.28-18.56-27.56-29.77-54.23-25.05-17,3-30.86,11.79-37.82,22.56l.74-7.64c-7.21-1.09-16.66-3.78-23.89-11.15-12.6-12.86-6.14-27.39-13.53-38.22-20.9-30.63-130.58.49-129.79,16.72.19,3.81,6.44,6.33,5.58,8-2,3.76-34.91-10.08-37.43-11.15-13.92-5.89-23.81-11.08-25.48-11.94-35-18-92.34,2.83-104.3,7.17-53.61,19.44-63.55,40.08-100.33,42.2-14.77.85-19.36-4-36.62-2.79-24.78,1.72-43,12.84-68.85,16.93-12.58,2-12.93,1.69-35.19,2.58-15.53.62-19.72.21-24.69-1.59-8.52-3.1-12.08-7.68-18.31-6.37s-6.08,6.55-12.74,8.75c-7.75,2.57-11-3.49-20.7-3.18-10.33.33-20.28,7.73-24.68,16.72-2.38,4.84-5.38,14.72-.8,19.91,3.32,3.75,8.24,2.34,19.91,2.38,24.39.09,26.47,6.34,41.4,3.19,11.08-2.34,11.3-6.07,21.5-7.17,12.88-1.39,22.62,4.74,27.87,5.58,28.39,4.51,57.51,16.65,83.6,14.33s31.56-12.2,53.35-8c11.77,2.29,18.16,4,34.15,10.73,22,9.32,35.94,13.86,59,17.13,32.06,4.56,48.09,6.84,68.47,3.19,36.22-6.48,42.77-23.21,85.2-28.66,11.46-1.48,21.18-2.73,34.24-.8,16.41,2.42,40,10.14,62.1,22.29,6,3.31,14.25,8.22,25.48,8,3.86-.09,12.88-.29,19.11-6.37,3.26-3.19,3.56-5.84,8.76-26.28,3.43-13.48,4.48-17,8-19.9,4.88-4.08,11.37-4.36,15.92-4l.51-5.2c7.75,14.63,33.36,21.67,52.18,19.26,14.38-1.84,34-10.37,40.54-27.6A27.09,27.09,0,0,0,876.08,461.47Z" transform="translate(-0.37 -2.22)"/><line class="cls-5" x1="758.65" y1="467.54" x2="552.04" y2="467.54"/></svg>