<svg id="Layer_1" data-name="Layer 1" xmlns="http://www.w3.org/2000/svg" viewBox="0 0 999.63 997.3"><defs><style>.cls-1{fill:#c4c4c4;}.cls-2{fill:#d3d2d2;}.cls-2,.cls-3,.cls-4{stroke:#1d1d1b;}.cls-2,.cls-3,.cls-4,.cls-5,.cls-6,.cls-7,.cls-8{stroke-miterlimit:10;}.cls-3,.cls-4{fill:#fff;}.cls-3,.cls-6{stroke-width:0.5px;}.cls-5,.cls-6,.cls-7{fill:none;}.cls-5,.cls-6{stroke:#d3d2d2;}.cls-7,.cls-8{stroke:#2858a3;}.cls-8{fill:#2858a3;opacity:0.3;}</style></defs><path class="cls-1" d="M500.86,2.23C776,1.46,1000.38,223.75,1000,501.56c-.38,276.29-224.28,498.92-503,498C224.35,998.58-3,773.5.41,494,3.74,225.16,225.2.15,500.86,2.23ZM988.15,499.71C987.72,232.88,772.47,13,499.86,13.3,228.66,13.65,12.23,229.6,12,500.1c-.27,270.84,215.57,487.55,487.73,488C772.19,988.55,988.62,768.91,988.15,499.71Z" transform="translate(-0.37 -2.22)"/><rect class="cls-2" x="76.63" y="499.32" width="846" height="107.24" rx="3.89"/><line class="cls-3" x1="243.53" y1="496.84" x2="243.53" y2="606.52"/><line class="cls-3" x1="593.66" y1="496.84" x2="593.66" y2="606.52"/><line class="cls-3" x1="413.44" y1="496.84" x2="413.44" y2="606.52"/><line class="cls-3" x1="753.27" y1="496.84" x2="753.27" y2="606.52"/><path class="cls-4" d="M781.19,486.91l.51-5.2c7.74,14.63,33.35,21.67,52.16,19.26,14.37-1.84,34-10.38,40.52-27.6" transform="translate(-0.37 -2.22)"/><path class="cls-4" d="M114.2,481.34c-2.38,4.84-5.38,14.72-.8,19.9,3.32,3.75,8.24,2.34,19.9,2.39,24.38.09,26.46,6.33,41.39,3.18,11.07-2.34,11.3-6.06,21.49-7.16,12.88-1.39,22.61,4.73,27.85,5.57,28.39,4.51,57.5,16.65,83.58,14.33s31.54-12.2,53.33-8c11.77,2.28,18.15,4,34.14,10.72,22,9.32,35.93,13.86,59,17.13,32.05,4.56,48.07,6.83,68.45,3.19,36.21-6.48,43.17-29.31,85.59-34.76,13-1.68,23.84-3.07,39.85.19,15.88,2.12,35.24,7.23,56,16,6,2.53,14.25,6.28,25.48,6.09,3.85-.07,12.87-.22,19.1-4.87,3.26-2.44,3.56-4.47,8.75-20.1,3.43-10.31,4.48-13,8-15.22,4.88-3.12,11.37-3.33,15.92-3.05" transform="translate(-0.37 -2.22)"/><path class="cls-5" d="M623.49,429.09c-2,3.76-35-15.13-37.57-16.2C572,407,562.12,401.81,560.45,401c-35-18-92.31,2.83-104.27,7.16-53.59,19.44-63.53,40.07-100.29,42.19-14.76.85-19.35-4-36.61-2.79-24.77,1.72-42.93,12.83-68.82,16.92-12.58,2-12.93,1.7-35.18,2.58-15.52.62-19.71.22-24.68-1.59-8.52-3.1-12.08-7.67-18.3-6.37s-6.08,6.55-12.74,8.76c-7.74,2.57-11.05-3.5-20.69-3.18-10.32.33-20.27,7.72-24.67,16.71" transform="translate(-0.37 -2.22)"/><path class="cls-5" d="M784.91,448.71c-7.21-.84-16.66-2.92-23.88-8.63-12.6-10-6.15-21.21-13.53-29.6-20.9-23.72-130.53.38-129.74,12.95.18,2.95,6.43,4.9,5.57,6.16" transform="translate(-0.37 -2.22)"/><path class="cls-5" d="M874.38,473.37a27,27,0,0,0,1.81-14.53c-3.29-18.55-27.56-29.76-54.22-25-17,3-30.84,11.78-37.81,22.55l.75-7.64" transform="translate(-0.37 -2.22)"/><line class="cls-6" x1="758.79" y1="464.9" x2="552.26" y2="464.9"/><path class="cls-7" d="M869.24,551.33" transform="translate(-0.37 -2.22)"/><polygon class="cls-8" points="509.56 552.8 771.45 470.51 509.56 387.35 509.56 552.8"/></svg>