<svg id="Layer_1" data-name="Layer 1" xmlns="http://www.w3.org/2000/svg" viewBox="0 0 713.44 766"><defs><style>.cls-1{fill:#0e0e0e;}</style></defs><path class="cls-1" d="M144.51,228.13c34-12.8,69.3-6.33,103.81-5.56,23,.51,25.21,15.7,11.73,33.54-21.51,28.48-42.45,57.4-67.61,91.54,23.64,0,40.62.16,57.59-.06,10.08-.13,18,4,18.62,14,.83,12.55-8,16.92-19.51,16.89q-52.32-.13-104.63-.14V355.84L220,257.48l-75.52-6.82Z" transform="translate(-144.51 -160.51)"/><path class="cls-1" d="M422.31,160.51c7.71,38.52-31.48,56.6-39.12,88.42,11.32,12.33,43.36-4.47,39.32,22.18-3.85,25.49-30.67,13.29-47.61,14.61-14.14,1.11-32.91,6.62-41.14-9.22s9-26.67,15.93-39.08c7.81-13.92,17.4-26.85,29-44.42-22.56-3.46-54.34,5.49-46.47-32.49Z" transform="translate(-144.51 -160.51)"/><path class="cls-1" d="M858,600.3C857.78,745,762.1,872.69,623.63,912.93,481.26,954.31,332.73,899.07,255,775.4c-7.61-12.12-22.38-24.33-13.89-40,10.2-18.8,27.61-4.91,40.52-2.52,115.65,21.37,213.55-10.82,288.51-100.74,76.09-91.26,88.1-195,45.72-305.57-4.22-11-17.21-21.67-7-34,11.5-13.86,25-3.32,37.38,1.17C772,339.43,858.11,464.19,858,600.3ZM665.64,337.48c-4.46-4.94-9.7-5.23-15.43-2.58l6.63,10.16C687.46,460.12,669.62,565.47,591,656.93c-77.9,90.65-179.71,123.24-299.91,111.43C358,869.19,483.26,915.93,600.28,887.69c121-29.19,209.29-131.28,225.27-260.32C839.71,513,772.87,391.82,665.64,337.48Z" transform="translate(-144.51 -160.51)"/><path class="cls-1" d="M320.17,614.64c42.77,0,76.46,0,110.14,0,11.79,0,24.92,1.34,24.9,15.92,0,14.27-12.62,16.35-24.77,16.32-43.74-.12-87.48,0-131.22-.06-9.86,0-21.19,2.16-27-8.33-6.91-12.51,2.87-21.19,9.84-29.63,31.77-38.5,63.87-76.75,95.81-115.12,7.69-9.23,15.22-18.59,27.62-33.76-41.24,0-75.58,0-109.91,0-11.66,0-24.11-.06-24.77-15.62-.7-16.53,12.36-15.92,23.74-15.95,43.74-.09,87.48-.21,131.21.08,10.69.07,23.67-3.52,28.86,10.79,4.21,11.64-5.36,18.73-11.31,26C409.27,506.78,374.59,547.76,340.19,589,334.91,595.3,330,602,320.17,614.64Z" transform="translate(-144.51 -160.51)"/></svg>